<svg width="30" height="23" viewBox="0 0 30 23" fill="none" xmlns="http://www.w3.org/2000/svg">
<path d="M26.7108 21.072C28.3594 19.2585 29.3486 17.2801 29.3486 13.9828C29.3486 8.21252 25.227 3.10171 19.4567 0.463867L17.973 2.60711C23.4135 5.57468 24.5676 9.36657 24.8973 11.8395C24.073 11.345 22.9189 11.1801 21.7648 11.345C18.7973 11.6747 16.4892 13.9828 16.4892 17.1152C16.4892 18.599 17.1486 20.0828 18.1378 21.2368C19.2919 22.3909 20.6108 22.8855 22.2594 22.8855C24.073 22.8855 25.7216 22.0612 26.7108 21.072ZM10.2243 21.072C11.873 19.2585 12.8621 17.2801 12.8621 13.9828C12.8621 8.21252 8.74052 3.10171 2.97025 0.463867L1.48647 2.60711C6.92701 5.57468 8.08106 9.36657 8.41079 11.8395C7.58647 11.345 6.43242 11.1801 5.27836 11.345C2.31079 11.6747 0.00268745 13.9828 0.00268745 17.1152C0.00268745 18.599 0.662146 20.0828 1.65133 21.2368C2.64052 22.3909 4.12431 22.8855 5.77296 22.8855C7.58647 22.8855 9.23512 22.0612 10.2243 21.072Z" fill="#1ECA8C"/>
</svg>
