<svg width="11" height="9" viewBox="0 0 11 9" fill="none" xmlns="http://www.w3.org/2000/svg">
<path d="M9.21631 7.56731C9.75685 6.97271 10.0812 6.32406 10.0812 5.24298C10.0812 3.35109 8.72983 1.67541 6.83793 0.810547L6.35145 1.51325C8.13523 2.48622 8.51361 3.72947 8.62172 4.54028C8.35145 4.37812 7.97307 4.32406 7.59469 4.37812C6.62172 4.48622 5.86496 5.24298 5.86496 6.27001C5.86496 6.75649 6.08118 7.24298 6.4055 7.62136C6.78388 7.99974 7.21631 8.1619 7.75685 8.1619C8.35145 8.1619 8.89199 7.89163 9.21631 7.56731ZM3.81091 7.56731C4.35145 6.97271 4.67577 6.32406 4.67577 5.24298C4.67577 3.35109 3.32442 1.67541 1.43253 0.810547L0.946042 1.51325C2.72983 2.48622 3.1082 3.72947 3.21631 4.54028C2.94604 4.37812 2.56766 4.32406 2.18928 4.37812C1.21631 4.48622 0.459556 5.24298 0.459556 6.27001C0.459556 6.75649 0.675772 7.24298 1.0001 7.62136C1.32442 7.99974 1.81091 8.1619 2.35145 8.1619C2.94604 8.1619 3.48658 7.89163 3.81091 7.56731Z" fill="white"/>
</svg>
