<svg width="32" height="32" viewBox="0 0 32 32" fill="none" xmlns="http://www.w3.org/2000/svg">
<path d="M30.5 20.4795H28.2047C27.2044 19.5311 25.8785 19.0024 24.5 19.0024C23.1216 19.0024 21.7956 19.5311 20.7953 20.4795H16C15.5271 20.4801 15.0696 20.648 14.7086 20.9534C14.3476 21.2589 14.1063 21.6823 14.0274 22.1486L9.66983 20.6958C9.36492 20.5942 9.04023 20.5665 8.7225 20.615C8.40478 20.6634 8.10313 20.7867 7.8424 20.9747C7.58167 21.1626 7.36933 21.4098 7.22287 21.6959C7.07642 21.982 7.00003 22.2988 7.00002 22.6202V22.653C6.99845 22.9956 7.0838 23.333 7.24808 23.6337C7.41236 23.9344 7.65022 24.1885 7.9394 24.3723L16.6188 29.8953C17.1859 30.2554 17.8213 30.4946 18.485 30.5982C19.1488 30.7017 19.8268 30.6672 20.4767 30.497L28.0647 28.5H30.5C30.6326 28.5 30.7598 28.4474 30.8536 28.3536C30.9473 28.2598 31 28.1326 31 28V20.9795C31 20.8469 30.9473 20.7197 30.8536 20.6259C30.7598 20.5322 30.6326 20.4795 30.5 20.4795ZM30 27.5H28C27.9571 27.5 27.9143 27.5056 27.8728 27.5165L20.2219 29.53C19.7053 29.6651 19.1664 29.6924 18.6388 29.6101C18.1112 29.5278 17.6062 29.3377 17.1553 29.0517L8.47627 23.5287C8.32935 23.4348 8.2086 23.3053 8.12531 23.1522C8.04203 22.999 7.99892 22.8273 8.00002 22.653V22.6202C8.00035 22.348 8.1083 22.087 8.30032 21.8941C8.49235 21.7012 8.75286 21.5921 9.02502 21.5906C9.13669 21.5907 9.2476 21.6089 9.35346 21.6445L14.1516 23.2445C14.3027 23.6103 14.559 23.923 14.8881 24.1429C15.2172 24.3628 15.6042 24.4799 16 24.4795H21C21.1326 24.4795 21.2598 24.4268 21.3536 24.333C21.4473 24.2393 21.5 24.1121 21.5 23.9795C21.5 23.8469 21.4473 23.7197 21.3536 23.6259C21.2598 23.5322 21.1326 23.4795 21 23.4795H16C15.7778 23.4798 15.5618 23.406 15.3862 23.2697C15.2107 23.1334 15.0856 22.9425 15.0308 22.7271V22.7258C14.9935 22.5782 14.9902 22.4241 15.0215 22.275C15.0527 22.126 15.1175 21.9861 15.2109 21.8659C15.3044 21.7457 15.4241 21.6484 15.5608 21.5814C15.6975 21.5145 15.8478 21.4796 16 21.4795H21C21.0657 21.4795 21.1307 21.4665 21.1914 21.4414C21.252 21.4163 21.3072 21.3795 21.3536 21.333L21.4042 21.2824C22.2259 20.4625 23.3392 20.0021 24.5 20.0021C25.6607 20.0021 26.774 20.4625 27.5957 21.2824L27.6463 21.333C27.6928 21.3795 27.7479 21.4163 27.8086 21.4414C27.8693 21.4666 27.9343 21.4795 28 21.4795H30V27.5Z" fill="white"/>
<path d="M9.34619 14.3236C9.35413 14.3257 9.36212 14.3277 9.37025 14.3294C9.69934 14.4001 10.035 14.4358 10.3716 14.4357C10.3947 14.4357 10.4178 14.435 10.4408 14.4347C10.6094 14.7697 10.8811 15.0419 11.2159 15.211C11.5508 15.3801 11.931 15.4373 12.3008 15.3742L12.8924 15.2735C13.2387 15.5166 13.667 15.613 14.0841 15.5418L15.2802 15.3384C15.3824 15.5229 15.5099 15.6921 15.6591 15.8412L19.2716 19.4537C19.318 19.5001 19.3731 19.537 19.4338 19.5621C19.4944 19.5872 19.5595 19.6002 19.6251 19.6002C19.6908 19.6002 19.7558 19.5872 19.8165 19.5621C19.8771 19.537 19.9323 19.5001 19.9787 19.4537L23.5912 15.8412C24.0132 15.4192 24.2502 14.8469 24.2502 14.2502C24.2502 13.6534 24.0132 13.0811 23.5912 12.6591C23.1692 12.2371 22.5969 12 22.0001 12C21.4034 12 20.831 12.2371 20.4091 12.6591L19.625 13.443L19.4136 13.2316C19.7709 12.92 20.0108 12.4954 20.0933 12.0286C20.1758 11.5617 20.096 11.0806 19.8672 10.6654C19.8801 10.6355 19.89 10.6044 19.8968 10.5725L20.1045 9.60796C20.1933 9.19055 20.1842 8.75824 20.0779 8.34493C19.9717 7.93162 19.7711 7.54853 19.492 7.22571L17.6406 5.09446C17.377 4.79028 17.0497 4.54783 16.6819 4.38431C16.3142 4.22079 15.9149 4.1402 15.5125 4.14828L7.95625 4.29203L1.72306 1.18484C1.64683 1.14684 1.56215 1.12894 1.47707 1.13285C1.39198 1.13676 1.3093 1.16234 1.23687 1.20716C1.16444 1.25199 1.10466 1.31457 1.06321 1.38898C1.02176 1.46339 0.999998 1.54716 1 1.63234V9.13234C1 9.22853 1.02776 9.32268 1.07992 9.40349C1.13209 9.48431 1.20647 9.54836 1.29412 9.58796L5.18412 11.3454L5.93531 12.2668C6.7835 13.3044 7.95844 14.0238 9.26825 14.3075C9.29425 14.313 9.32019 14.3185 9.34619 14.3236ZM11.5962 14.2771C11.805 14.2219 12.0099 14.1527 12.2094 14.0698C12.217 14.1702 12.234 14.2696 12.2601 14.3668L12.1335 14.3884C11.9467 14.4203 11.7547 14.3806 11.5959 14.2771H11.5962ZM13.9167 14.5561C13.7996 14.576 13.6792 14.5612 13.5705 14.5133C13.4618 14.4654 13.3695 14.3867 13.3051 14.2869C13.2535 14.2068 13.2208 14.116 13.2094 14.0214C13.198 13.9268 13.2082 13.8309 13.2392 13.7408C13.2718 13.6389 13.3333 13.5487 13.4163 13.4811L13.8958 13.2418L15.1687 13.3972C15.0575 13.6678 15.0002 13.9575 15 14.2501C15 14.2906 15.0013 14.331 15.0034 14.3712L13.9167 14.5561ZM19.2717 14.5037C19.3182 14.5501 19.3733 14.587 19.434 14.6121C19.4946 14.6372 19.5597 14.6502 19.6253 14.6502C19.691 14.6502 19.756 14.6372 19.8167 14.6121C19.8773 14.587 19.9324 14.5501 19.9789 14.5037L21.1164 13.3662C21.2325 13.2501 21.3703 13.158 21.5219 13.0952C21.6736 13.0324 21.8362 13.0001 22.0003 13.0001C22.1645 13.0001 22.3271 13.0324 22.4787 13.0952C22.6304 13.158 22.7682 13.2501 22.8843 13.3662C23.0004 13.4823 23.0925 13.6201 23.1553 13.7718C23.2181 13.9235 23.2505 14.086 23.2505 14.2502C23.2505 14.4144 23.2181 14.5769 23.1553 14.7286C23.0925 14.8803 23.0004 15.0181 22.8843 15.1342L19.625 18.393L16.3662 15.1342C16.1573 14.9255 16.0291 14.6495 16.0044 14.3552C15.9797 14.061 16.06 13.7675 16.2312 13.5268L17.8069 13.7191C18.0256 13.7458 18.2471 13.7377 18.4632 13.6953L19.2717 14.5037ZM6.71069 11.635L5.88513 10.6225C5.83623 10.5624 5.77402 10.5146 5.70344 10.4828L2 8.80959V2.44028L7.61987 5.24184C7.69233 5.27704 7.77195 5.29501 7.8525 5.29434L15.5312 5.14815C15.5425 5.14815 15.5536 5.14778 15.5648 5.14778C15.8153 5.14749 16.063 5.20114 16.2909 5.30507C16.5188 5.409 16.7217 5.56078 16.8858 5.75009L18.7375 7.88134C18.9151 8.08677 19.0427 8.33054 19.1103 8.59355C19.1779 8.85656 19.1837 9.13166 19.1272 9.39728L19.0317 9.84071C18.8621 9.75065 18.6808 9.68456 18.4929 9.64434L17.5819 9.44815L17.6871 8.9594C17.715 8.82976 17.6903 8.69434 17.6184 8.58293C17.5464 8.47152 17.4332 8.39325 17.3036 8.36534C17.1739 8.33742 17.0385 8.36215 16.9271 8.43409C16.8157 8.50602 16.7374 8.61926 16.7095 8.7489L16.6042 9.23771L15.8883 9.08353L15.3246 7.65553C15.2759 7.53218 15.1802 7.43322 15.0586 7.38043C14.9369 7.32764 14.7993 7.32533 14.6759 7.37403C14.5526 7.42272 14.4536 7.51842 14.4008 7.64007C14.348 7.76172 14.3457 7.89936 14.3944 8.02271L14.7132 8.83059L13.6632 8.60453C13.5986 8.58971 13.5318 8.58786 13.4665 8.59909C13.4012 8.61033 13.3389 8.63442 13.283 8.66996C13.2271 8.70551 13.1788 8.7518 13.141 8.80616C13.1031 8.86051 13.0765 8.92184 13.0625 8.98659C13.0486 9.05134 13.0476 9.11821 13.0598 9.18332C13.0719 9.24844 13.0968 9.31049 13.1331 9.36589C13.1694 9.42129 13.2163 9.46892 13.2712 9.50602C13.3261 9.54313 13.3878 9.56896 13.4527 9.58203L18.2825 10.622C18.5513 10.6797 18.7875 10.8389 18.9419 11.0664C19.0963 11.294 19.157 11.5723 19.1114 11.8434C19.0657 12.1146 18.9173 12.3576 18.6969 12.5221C18.4765 12.6865 18.2012 12.7596 17.9283 12.7262L13.8677 12.2308C13.7704 12.2189 13.6717 12.236 13.584 12.2797L13.1992 12.4716C13.198 12.472 13.1967 12.4723 13.1956 12.4727C13.0903 12.5108 12.9899 12.5611 12.8964 12.6227L12.0613 13.0393C11.3036 13.416 10.4416 13.5283 9.61269 13.3583C9.5985 13.3543 9.58413 13.3509 9.56956 13.3482C9.539 13.3423 9.50844 13.3361 9.4785 13.3294C8.39071 13.0939 7.41489 12.4966 6.71037 11.635H6.71069Z" fill="white"/>
</svg>
