<svg width="24" height="24" viewBox="0 0 24 24" fill="none" xmlns="http://www.w3.org/2000/svg">
<path d="M15.15 8.40042C14.3836 8.39779 13.6241 8.54632 12.9151 8.8375C12.2062 9.12868 11.5615 9.55681 11.0182 10.0974C10.4748 10.6379 10.0434 11.2803 9.74858 11.9878C9.45376 12.6953 9.30133 13.454 9.30002 14.2204V20.1004C9.30002 20.3391 9.39484 20.568 9.56362 20.7368C9.73241 20.9056 9.96132 21.0004 10.2 21.0004H12.3C12.5387 21.0004 12.7676 20.9056 12.9364 20.7368C13.1052 20.568 13.2 20.3391 13.2 20.1004V14.2204C13.1998 13.9478 13.2571 13.6782 13.3681 13.4293C13.479 13.1803 13.6412 12.9575 13.8441 12.7754C14.0469 12.5933 14.2859 12.456 14.5454 12.3724C14.8048 12.2889 15.079 12.2609 15.35 12.2904C15.836 12.3516 16.2827 12.5891 16.6052 12.9577C16.9278 13.3264 17.1039 13.8006 17.1 14.2904V20.1004C17.1 20.3391 17.1948 20.568 17.3636 20.7368C17.5324 20.9056 17.7613 21.0004 18 21.0004H20.1C20.3387 21.0004 20.5676 20.9056 20.7364 20.7368C20.9052 20.568 21 20.3391 21 20.1004V14.2204C20.9987 13.454 20.8463 12.6953 20.5515 11.9878C20.2566 11.2803 19.8252 10.6379 19.2818 10.0974C18.7385 9.55681 18.0939 9.12868 17.3849 8.8375C16.6759 8.54632 15.9165 8.39779 15.15 8.40042Z" fill="#1ECA8C"/>
<path d="M6.6 9.2998H3.9C3.40294 9.2998 3 9.70275 3 10.1998V20.0998C3 20.5969 3.40294 20.9998 3.9 20.9998H6.6C7.09706 20.9998 7.5 20.5969 7.5 20.0998V10.1998C7.5 9.70275 7.09706 9.2998 6.6 9.2998Z" fill="#1ECA8C"/>
<path d="M5.25 7.5C6.49264 7.5 7.5 6.49264 7.5 5.25C7.5 4.00736 6.49264 3 5.25 3C4.00736 3 3 4.00736 3 5.25C3 6.49264 4.00736 7.5 5.25 7.5Z" fill="#1ECA8C"/>
</svg>
