<svg width="197" height="54" viewBox="0 0 197 54" fill="none" xmlns="http://www.w3.org/2000/svg">
<path d="M0.14154 20.5757C-0.149833 20.0711 0.0230806 19.4257 0.527754 19.1344L33.4243 0.14154C33.929 -0.149833 34.5743 0.0230806 34.8656 0.527754L53.8585 33.4243C54.1498 33.929 53.9769 34.5743 53.4723 34.8656L20.5757 53.8585C20.0711 54.1498 19.4257 53.9769 19.1344 53.4723L0.14154 20.5757Z" fill="#1ECA8C"/>
<path d="M39.1823 7.04564C39.1823 7.08752 38.5686 7.56211 37.8294 8.1344C35.2631 10.0467 33.1152 11.9311 30.5349 14.5274C21.5946 23.4468 18.2751 31.5567 21.0646 37.5589C21.2877 38.0474 21.6504 38.6755 21.8456 38.9268C22.5569 39.862 21.999 39.527 20.8135 38.3126C18.568 36.0234 17.5637 33.6644 17.5637 30.6494C17.5637 29.0582 17.7451 27.9554 18.289 26.2665C20.0046 20.8785 25.0117 14.9741 31.4415 10.7586C33.5755 9.36275 37.2855 7.56211 39.1544 7.00377C39.1684 6.98981 39.1823 7.01772 39.1823 7.04564ZM26.0159 8.3019C27.2851 8.88816 27.8709 10.0607 27.5362 11.3728C26.9225 13.7736 23.3101 14.1505 22.0688 11.9451C20.7577 9.62796 23.4775 7.11543 26.0159 8.3019ZM17.1872 11.4705C18.6656 12.2242 23.0591 15.4068 23.2264 15.8534C23.2683 15.9511 22.9893 16.4257 22.6267 16.9143C22.2501 17.4028 21.8456 17.9612 21.7061 18.1566L21.469 18.4916L20.8832 17.9193C19.9209 16.9841 17.2709 15.0718 16.0435 14.4157C15.4158 14.0807 14.9137 13.7736 14.9137 13.7318C14.9137 13.5363 16.4061 11.1773 16.5316 11.1773C16.5735 11.1773 16.8664 11.3169 17.1872 11.4705ZM28.2475 20.8366C29.9352 23.5725 31.3857 27.09 32.1668 30.3982C32.5154 31.9196 32.5573 32.2546 32.5433 34.837C32.5433 38.0753 32.362 38.9547 31.316 41.1183C30.0188 43.7704 27.8709 45.6827 24.7885 46.9529C24.0214 47.274 24.147 47.0506 25.1372 46.3248C27.4944 44.5939 29.0983 41.9558 29.5586 39.0664C29.8375 37.3774 29.6702 34.2228 29.2238 32.2407C28.5962 29.4909 27.2154 25.8477 25.9462 23.5725L25.2628 22.3581L25.988 21.3252C27.0062 19.8595 27.2433 19.5664 27.3549 19.5524C27.4107 19.5524 27.8151 20.1387 28.2475 20.8366Z" fill="#E8FAF3"/>
<path d="M64.38 35V16.66H67.32V24.136H75.132V16.66H78.072V35H75.132V26.712H67.32V35H64.38ZM87.821 35.336C86.1224 35.336 84.6197 34.7107 83.313 33.46C82.025 32.2093 81.381 30.4453 81.381 28.168C81.381 25.8907 82.025 24.1267 83.313 22.876C84.6197 21.6067 86.1224 20.972 87.821 20.972C89.5197 20.972 91.0224 21.6067 92.329 22.876C93.6357 24.1267 94.289 25.8907 94.289 28.168C94.289 30.4453 93.6357 32.2093 92.329 33.46C91.0224 34.7107 89.5197 35.336 87.821 35.336ZM87.821 32.956C88.885 32.956 89.725 32.5173 90.341 31.64C90.9757 30.7627 91.293 29.6053 91.293 28.168C91.293 26.7307 90.9757 25.5733 90.341 24.696C89.725 23.8 88.885 23.352 87.821 23.352C86.757 23.352 85.9077 23.8 85.273 24.696C84.657 25.5733 84.349 26.7307 84.349 28.168C84.349 29.6053 84.657 30.7627 85.273 31.64C85.9077 32.5173 86.757 32.956 87.821 32.956ZM103.19 32.928C104.179 32.928 105 32.4987 105.654 31.64C106.326 30.7813 106.662 29.5587 106.662 27.972C106.662 26.5533 106.41 25.4333 105.906 24.612C105.42 23.7907 104.608 23.38 103.47 23.38C102.443 23.38 101.37 23.9307 100.25 25.032V31.696C100.772 32.144 101.286 32.4613 101.79 32.648C102.312 32.8347 102.779 32.928 103.19 32.928ZM97.3375 40.544V21.308H99.7455L99.9695 22.792H100.054C100.632 22.288 101.286 21.8587 102.014 21.504C102.742 21.1493 103.488 20.972 104.254 20.972C105.99 20.972 107.324 21.6067 108.258 22.876C109.191 24.1453 109.658 25.8347 109.658 27.944C109.658 30.2773 109.06 32.0973 107.866 33.404C106.671 34.692 105.308 35.336 103.778 35.336C102.602 35.336 101.398 34.8227 100.166 33.796L100.25 36.12V40.544H97.3375ZM118.493 35.336C116.626 35.336 115.049 34.7107 113.761 33.46C112.473 32.1907 111.829 30.4267 111.829 28.168C111.829 26.6747 112.128 25.396 112.725 24.332C113.322 23.2493 114.097 22.4187 115.049 21.84C116.001 21.2613 117.009 20.972 118.073 20.972C119.902 20.972 121.293 21.5693 122.245 22.764C123.197 23.94 123.673 25.4987 123.673 27.44C123.673 28.056 123.626 28.5507 123.533 28.924H114.657C114.788 30.212 115.226 31.2293 115.973 31.976C116.738 32.704 117.709 33.068 118.885 33.068C119.482 33.068 120.042 32.9747 120.565 32.788C121.106 32.6013 121.629 32.3493 122.133 32.032L123.141 33.88C122.506 34.2907 121.797 34.636 121.013 34.916C120.229 35.196 119.389 35.336 118.493 35.336ZM114.629 26.908H121.153C121.153 24.4627 120.145 23.24 118.129 23.24C117.27 23.24 116.505 23.5573 115.833 24.192C115.161 24.8267 114.76 25.732 114.629 26.908ZM126.555 35V21.308H128.963L129.187 23.744H129.271C130.26 21.896 131.558 20.972 133.163 20.972C133.779 20.972 134.283 21.0653 134.675 21.252L134.171 23.772C133.928 23.6973 133.704 23.6413 133.499 23.604C133.312 23.5667 133.07 23.548 132.771 23.548C132.23 23.548 131.651 23.772 131.035 24.22C130.419 24.6493 129.896 25.4053 129.467 26.488V35H126.555ZM139.935 33.04C140.514 33.04 141.055 32.9 141.559 32.62C142.082 32.34 142.623 31.948 143.183 31.444V28.112C141.167 28.3733 139.767 28.756 138.983 29.26C138.199 29.764 137.807 30.3893 137.807 31.136C137.807 31.808 138.012 32.2933 138.423 32.592C138.834 32.8907 139.338 33.04 139.935 33.04ZM139.039 35.336C137.844 35.336 136.874 34.972 136.127 34.244C135.38 33.516 135.007 32.5547 135.007 31.36C135.007 29.8853 135.651 28.7467 136.939 27.944C138.246 27.1227 140.327 26.5627 143.183 26.264C143.164 25.48 142.968 24.7987 142.595 24.22C142.24 23.6227 141.568 23.324 140.579 23.324C139.851 23.324 139.151 23.464 138.479 23.744C137.826 24.0053 137.21 24.3227 136.631 24.696L135.539 22.764C136.248 22.2973 137.079 21.8867 138.031 21.532C138.983 21.1587 140 20.972 141.083 20.972C142.8 20.972 144.06 21.4853 144.863 22.512C145.684 23.52 146.095 24.948 146.095 26.796V35H143.687L143.463 33.432H143.379C142.744 33.9547 142.063 34.4027 141.335 34.776C140.626 35.1493 139.86 35.336 139.039 35.336ZM151.295 18.76C150.754 18.76 150.306 18.6013 149.951 18.284C149.597 17.948 149.419 17.5373 149.419 17.052C149.419 16.5293 149.597 16.1187 149.951 15.82C150.306 15.5027 150.754 15.344 151.295 15.344C151.818 15.344 152.257 15.5027 152.611 15.82C152.966 16.1187 153.143 16.5293 153.143 17.052C153.143 17.5373 152.966 17.948 152.611 18.284C152.257 18.6013 151.818 18.76 151.295 18.76ZM149.811 35V21.308H152.723V35H149.811ZM160.447 35.336C159.495 35.336 158.562 35.1587 157.647 34.804C156.733 34.4307 155.949 33.9733 155.295 33.432L156.667 31.556C157.265 32.0227 157.871 32.4053 158.487 32.704C159.103 32.984 159.785 33.124 160.531 33.124C161.334 33.124 161.931 32.956 162.323 32.62C162.715 32.2653 162.911 31.8267 162.911 31.304C162.911 30.688 162.594 30.2213 161.959 29.904C161.325 29.568 160.634 29.26 159.887 28.98C158.954 28.6253 158.067 28.1587 157.227 27.58C156.387 27.0013 155.967 26.1333 155.967 24.976C155.967 23.8187 156.397 22.8667 157.255 22.12C158.133 21.3547 159.337 20.972 160.867 20.972C161.782 20.972 162.613 21.1307 163.359 21.448C164.125 21.7653 164.778 22.1387 165.319 22.568L163.975 24.36C163.49 24.0053 162.995 23.7253 162.491 23.52C162.006 23.296 161.483 23.184 160.923 23.184C160.158 23.184 159.598 23.3427 159.243 23.66C158.889 23.9773 158.711 24.3693 158.711 24.836C158.711 25.4147 159.01 25.8533 159.607 26.152C160.205 26.432 160.886 26.712 161.651 26.992C162.603 27.3653 163.509 27.832 164.367 28.392C165.226 28.9333 165.655 29.848 165.655 31.136C165.655 32.2933 165.207 33.2827 164.311 34.104C163.434 34.9253 162.146 35.336 160.447 35.336ZM174.105 35.336C172.238 35.336 170.661 34.7107 169.373 33.46C168.085 32.1907 167.441 30.4267 167.441 28.168C167.441 26.6747 167.739 25.396 168.337 24.332C168.934 23.2493 169.709 22.4187 170.661 21.84C171.613 21.2613 172.621 20.972 173.685 20.972C175.514 20.972 176.905 21.5693 177.857 22.764C178.809 23.94 179.285 25.4987 179.285 27.44C179.285 28.056 179.238 28.5507 179.145 28.924H170.269C170.399 30.212 170.838 31.2293 171.585 31.976C172.35 32.704 173.321 33.068 174.497 33.068C175.094 33.068 175.654 32.9747 176.177 32.788C176.718 32.6013 177.241 32.3493 177.745 32.032L178.753 33.88C178.118 34.2907 177.409 34.636 176.625 34.916C175.841 35.196 175.001 35.336 174.105 35.336ZM170.241 26.908H176.765C176.765 24.4627 175.757 23.24 173.741 23.24C172.882 23.24 172.117 23.5573 171.445 24.192C170.773 24.8267 170.371 25.732 170.241 26.908ZM182.167 35V21.308H184.575L184.799 23.744H184.883C185.872 21.896 187.169 20.972 188.775 20.972C189.391 20.972 189.895 21.0653 190.287 21.252L189.783 23.772C189.54 23.6973 189.316 23.6413 189.111 23.604C188.924 23.5667 188.681 23.548 188.383 23.548C187.841 23.548 187.263 23.772 186.647 24.22C186.031 24.6493 185.508 25.4053 185.079 26.488V35H182.167Z" fill="#E8FAF3"/>
</svg>
