<svg width="38" height="14" viewBox="0 0 38 14" fill="none" xmlns="http://www.w3.org/2000/svg">
<path d="M0.895717 6.9998C0.895155 6.78921 0.936355 6.5806 1.01693 6.38603C1.0975 6.19147 1.21585 6.01481 1.36512 5.86627L6.66491 0.56658C6.88568 0.349166 7.18344 0.227829 7.4933 0.229012C7.80315 0.230196 8.09998 0.353805 8.31908 0.5729C8.53819 0.791996 8.66182 1.08882 8.66302 1.39867C8.66422 1.70852 8.5429 2.00629 8.3255 2.22708L4.72691 5.82558H36.8258C37.1372 5.82558 37.4359 5.94929 37.6561 6.1695C37.8763 6.38971 38 6.68838 38 6.9998C38 7.31122 37.8763 7.60989 37.6561 7.8301C37.4359 8.05031 37.1372 8.17402 36.8258 8.17402H4.72691L8.3255 11.7725C8.5429 11.9933 8.66422 12.2911 8.66302 12.6009C8.66182 12.9108 8.53819 13.2076 8.31908 13.4267C8.09998 13.6458 7.80315 13.7694 7.4933 13.7706C7.18344 13.7718 6.88568 13.6504 6.66491 13.433L1.36531 8.13333C1.21594 7.98485 1.09753 7.8082 1.01692 7.61363C0.93631 7.41905 0.895113 7.21041 0.895717 6.9998Z" fill="#1ECA8C"/>
</svg>
