<svg width="38" height="14" viewBox="0 0 38 14" fill="none" xmlns="http://www.w3.org/2000/svg">
<path d="M37.1043 6.9998C37.1048 6.78921 37.0636 6.5806 36.9831 6.38603C36.9025 6.19147 36.7842 6.01481 36.6349 5.86627L31.3351 0.56658C31.1143 0.349166 30.8166 0.227829 30.5067 0.229012C30.1968 0.230196 29.9 0.353805 29.6809 0.5729C29.4618 0.791996 29.3382 1.08882 29.337 1.39867C29.3358 1.70852 29.4571 2.00629 29.6745 2.22708L33.2731 5.82558H1.17422C0.862797 5.82558 0.564129 5.94929 0.343921 6.1695C0.123712 6.38971 0 6.68838 0 6.9998C0 7.31122 0.123712 7.60989 0.343921 7.8301C0.564129 8.05031 0.862797 8.17402 1.17422 8.17402H33.2731L29.6745 11.7725C29.4571 11.9933 29.3358 12.2911 29.337 12.6009C29.3382 12.9108 29.4618 13.2076 29.6809 13.4267C29.9 13.6458 30.1968 13.7694 30.5067 13.7706C30.8166 13.7718 31.1143 13.6504 31.3351 13.433L36.6347 8.13333C36.7841 7.98485 36.9025 7.8082 36.9831 7.61363C37.0637 7.41905 37.1049 7.21041 37.1043 6.9998Z" fill="#919392"/>
</svg>
