<svg width="56" height="56" viewBox="0 0 56 56" fill="none" xmlns="http://www.w3.org/2000/svg">
<path d="M41.8267 14.1418C41.3437 14.1418 40.9526 13.7506 40.9517 13.2676C40.9474 9.84637 38.6356 6.1425 34.909 6.125C34.426 6.12325 34.0357 5.7295 34.0384 5.2465C34.041 4.76437 34.4321 4.375 34.9134 4.375H34.9177C39.718 4.39687 42.6956 9.00637 42.7017 13.265C42.7026 13.7489 42.3106 14.1418 41.8267 14.1418Z" fill="#919392"/>
<path d="M28 30.175C27.7917 30.175 27.5826 30.1015 27.4155 29.951C27.0558 29.6281 27.0261 29.0751 27.349 28.7155C28.8653 27.0259 30.8857 25.5646 32.8396 24.1515C36.8007 21.285 40.5431 18.5777 40.9211 14.0032C40.9412 13.7582 40.9508 13.5124 40.9508 13.2665C40.9508 12.7835 41.342 12.3915 41.8258 12.3915C42.3097 12.3915 42.7008 12.7835 42.7008 13.2665C42.7008 13.5605 42.6895 13.8545 42.6658 14.1476C42.2196 19.5236 37.9723 22.5966 33.8642 25.569C31.899 26.9909 30.0422 28.3349 28.6501 29.8845C28.4786 30.077 28.2397 30.175 28 30.175Z" fill="#919392"/>
<path d="M14.1733 14.1418C13.6903 14.1418 13.2991 13.7506 13.2983 13.2676C13.293 9.00813 16.268 4.39775 21.0831 4.375C21.5469 4.39512 21.9599 4.76262 21.9625 5.2465C21.9643 5.7295 21.574 6.12325 21.091 6.125C17.472 6.14163 15.0448 9.83063 15.0491 13.2659C15.0491 13.7489 14.658 14.1418 14.1733 14.1418C14.1741 14.1418 14.1741 14.1418 14.1733 14.1418Z" fill="#919392"/>
<path d="M28.0008 30.175C27.7611 30.175 27.5222 30.077 27.3498 29.8854C25.9594 28.341 24.1071 27.0005 22.1462 25.5804C18.0328 22.6036 13.7794 19.5254 13.3349 14.1476C13.3113 13.8545 13.2991 13.5596 13.2991 13.2656C13.2999 12.7826 13.6911 12.3915 14.1741 12.3915H14.1758C14.6588 12.3924 15.0499 12.7844 15.0491 13.2674C15.0491 13.5132 15.0596 13.7582 15.0788 14.0024C15.4577 18.5777 19.2053 21.2902 23.1726 24.162C25.1221 25.5725 27.1363 27.0311 28.6509 28.7137C28.9747 29.0734 28.9458 29.6264 28.5862 29.9492C28.4191 30.1006 28.2091 30.175 28.0008 30.175Z" fill="#919392"/>
<path d="M28 9.33185C27.7891 9.33185 27.5783 9.2566 27.4094 9.1026C27.0533 8.77622 27.0279 8.22322 27.3543 7.86622C29.281 5.75835 32.025 4.4861 34.8793 4.37585C35.3649 4.3531 35.7691 4.73285 35.7875 5.21585C35.8068 5.69972 35.4305 6.1066 34.9475 6.12497C32.557 6.21772 30.2601 7.2826 28.6458 9.04747C28.4734 9.23647 28.2371 9.33185 28 9.33185Z" fill="#919392"/>
<path d="M28.0009 9.33185C27.7638 9.33185 27.5275 9.23648 27.3551 9.04748C25.7399 7.2826 23.443 6.21685 21.0534 6.12498C20.5704 6.1066 20.195 5.69973 20.2134 5.21673C20.2318 4.7346 20.629 4.34698 21.1208 4.37673C23.9759 4.48698 26.7173 5.75923 28.6466 7.8671C28.973 8.22323 28.9485 8.7771 28.5915 9.10348C28.4226 9.2566 28.2109 9.33185 28.0009 9.33185Z" fill="#919392"/>
<path d="M46.123 46.0083C45.6698 46.0083 45.2865 45.6592 45.2515 45.1998C45.15 43.8663 44.1088 42.8111 42.777 42.6903L32.9018 41.797C30.4185 41.573 28.6318 40.4127 26.74 39.1851C24.9288 38.01 23.0318 37.1446 21.035 36.5697C20.5713 36.4358 20.3026 35.9511 20.4365 35.4865C20.5704 35.0218 21.0516 34.7515 21.5189 34.888C23.681 35.5101 25.7346 36.4472 27.6246 37.6731C29.4709 38.871 31.0074 39.8685 33.0584 40.0531L42.9336 40.9465C45.1203 41.1442 46.8283 42.8767 46.9963 45.066C47.033 45.5481 46.6725 45.9681 46.1904 46.0048C46.1685 46.0075 46.1449 46.0083 46.123 46.0083Z" fill="#919392"/>
<path d="M15.7491 36.5741C15.3335 36.5741 14.9651 36.2775 14.889 35.854C14.8033 35.3788 15.12 34.9238 15.596 34.8381L16.7248 34.6351C17.1973 34.5476 17.6549 34.8661 17.7406 35.3421C17.8264 35.8172 17.5096 36.2722 17.0336 36.3579L15.9049 36.561C15.8524 36.5697 15.8008 36.5741 15.7491 36.5741Z" fill="#919392"/>
<path d="M38.3486 36.1305C38.1395 36.1305 37.9295 36.0561 37.7624 35.9047C36.5006 34.7646 34.6465 34.6526 33.2535 35.6309C32.858 35.91 32.312 35.8129 32.0346 35.4182C31.7564 35.0227 31.8509 34.4776 32.2464 34.1994C34.3105 32.7469 37.0615 32.914 38.9349 34.6054C39.2936 34.9291 39.3216 35.4821 38.9979 35.8417C38.8255 36.0334 38.5875 36.1305 38.3486 36.1305Z" fill="#919392"/>
<path d="M43.1891 36.9267C42.9188 36.9267 42.6536 36.8025 42.4813 36.568C41.6421 35.4191 40.0155 35.1531 38.8518 35.9712C38.458 36.2495 37.912 36.1541 37.6329 35.7595C37.3538 35.3649 37.4491 34.818 37.8446 34.5397C39.7828 33.1765 42.4953 33.6227 43.8944 35.5346C44.1788 35.9249 44.0948 36.4726 43.7036 36.757C43.5496 36.8725 43.3685 36.9267 43.1891 36.9267Z" fill="#919392"/>
<path d="M30.8989 41.3752C30.6241 41.3752 30.3529 41.2457 30.1831 41.0042C29.9049 40.6087 29.9994 40.0627 30.3949 39.7845L37.8464 34.5397C38.241 34.2615 38.787 34.3569 39.0653 34.7515C39.3435 35.147 39.249 35.693 38.8535 35.9712L31.402 41.216C31.248 41.3236 31.073 41.3752 30.8989 41.3752Z" fill="#919392"/>
<path d="M35.9896 42.0717C35.7149 42.0717 35.4436 41.9422 35.2739 41.7007C34.9956 41.3052 35.0901 40.7592 35.4856 40.481L36.5907 39.704C38.5971 38.2952 40.6717 36.8375 42.6659 35.35C43.0526 35.0612 43.6012 35.14 43.89 35.5285C44.1787 35.9152 44.0991 36.4639 43.7115 36.7526C41.6972 38.255 39.6121 39.7197 37.5961 41.1355L36.4919 41.9125C36.3387 42.0201 36.1637 42.0717 35.9896 42.0717Z" fill="#919392"/>
<path d="M27.4776 51.6249C25.9306 51.6249 24.3924 51.2837 22.9749 50.6108C22.5383 50.4034 22.3519 49.8819 22.5593 49.4453C22.7658 49.0087 23.289 48.8223 23.7248 49.0297C25.6235 49.9301 27.7839 50.1182 29.8069 49.5582C30.2698 49.4339 30.7554 49.7026 30.8831 50.1681C31.0118 50.6344 30.7388 51.1157 30.2733 51.2443C29.3571 51.4998 28.4165 51.6249 27.4776 51.6249Z" fill="#919392"/>
<path d="M45.3539 44.0413C45.0791 44.0413 44.8079 43.9118 44.6381 43.6703C44.3599 43.2748 44.4544 42.7288 44.8499 42.4506C46.711 41.1398 48.4942 39.6873 50.1515 38.1307C50.5041 37.8017 51.0571 37.8175 51.3879 38.1692C51.7195 38.521 51.7011 39.0748 51.3494 39.4065C49.6335 41.0182 47.7855 42.5241 45.857 43.8812C45.703 43.9897 45.528 44.0413 45.3539 44.0413Z" fill="#919392"/>
<path d="M50.75 39.6445C50.2661 39.6445 49.875 39.2525 49.875 38.7695C49.875 38.0651 49.3194 37.7588 49.1487 37.6818C48.979 37.604 48.3822 37.3905 47.8529 37.8568C47.4915 38.1753 46.9385 38.1412 46.6182 37.7781C46.2997 37.415 46.3347 36.862 46.6979 36.5426C47.572 35.7726 48.7882 35.5985 49.8706 36.0867C50.9521 36.5767 51.625 37.604 51.625 38.7695C51.625 39.2525 51.2339 39.6445 50.75 39.6445Z" fill="#919392"/>
<path d="M41.3779 42.5599C41.1031 42.5599 40.8319 42.4304 40.6621 42.1889C40.3839 41.7934 40.4784 41.2474 40.8739 40.9692C42.8286 39.5928 44.8516 38.1692 46.6961 36.5434C47.0593 36.2241 47.6123 36.2582 47.9308 36.6213C48.2501 36.9844 48.2151 37.5366 47.8529 37.8568C45.9366 39.5456 43.8743 40.9972 41.8801 42.4007C41.727 42.5083 41.552 42.5599 41.3779 42.5599Z" fill="#919392"/>
<path d="M47.2745 38.0748C46.9192 38.0748 46.585 37.856 46.4537 37.5043C46.2612 36.9854 45.8334 36.5986 45.2786 36.4438C44.7291 36.2898 44.1647 36.3965 43.7299 36.7386C43.3501 37.0405 42.7997 36.974 42.5014 36.5951C42.2012 36.2163 42.2651 35.6659 42.6449 35.3666C43.5216 34.6719 44.6512 34.4523 45.7511 34.7594C46.8344 35.063 47.7102 35.8619 48.0944 36.8961C48.2624 37.3494 48.0322 37.8525 47.5781 38.0214C47.4792 38.0573 47.376 38.0748 47.2745 38.0748Z" fill="#919392"/>
<path d="M36.3912 47.1555C34.8985 47.1555 33.5195 47.0198 32.3741 46.8807C31.8946 46.823 31.5534 46.3863 31.6111 45.9068C31.6697 45.4273 32.1029 45.0878 32.5859 45.1438C35.1566 45.4562 37.0326 45.4903 38.8561 45.2567C39.7477 45.1438 40.6376 44.9986 41.5292 44.8533C43.0062 44.6127 44.534 44.3633 46.0652 44.261C46.5701 44.2251 46.9647 44.5935 46.9971 45.0756C47.0295 45.5577 46.6646 45.9751 46.1825 46.0066C44.7335 46.1037 43.2477 46.3461 41.811 46.5806C40.8992 46.7293 39.9892 46.8772 39.0775 46.9936C38.1605 47.1091 37.2566 47.1555 36.3912 47.1555Z" fill="#919392"/>
<path d="M30.0405 51.2785C29.6573 51.2785 29.3046 51.0238 29.1979 50.6362C29.0693 50.1707 29.3423 49.6886 29.8078 49.56C33.5563 48.5231 37.1779 47.0373 40.572 45.1412L40.6928 45.0747C41.1145 44.8393 41.6483 44.9925 41.8819 45.416C42.1164 45.8386 41.9633 46.3715 41.5398 46.6051L41.4216 46.6707C37.9085 48.6333 34.1574 50.1733 30.2741 51.247C30.1971 51.2671 30.1184 51.2785 30.0405 51.2785Z" fill="#919392"/>
<path d="M27.4802 39.501C27.2055 39.501 26.9342 39.3715 26.7645 39.13C26.4862 38.7345 26.5807 38.1885 26.9762 37.9102L32.2464 34.2011C32.641 33.9237 33.187 34.0182 33.4652 34.4128C33.7435 34.8083 33.649 35.3543 33.2535 35.6326L27.9842 39.3417C27.8302 39.4485 27.6544 39.501 27.4802 39.501Z" fill="#919392"/>
<path d="M13.9974 36.89C13.5817 36.89 13.2134 36.5934 13.1372 36.1699C13.0515 35.6939 13.3682 35.2398 13.8442 35.1532L16.7247 34.6352C18.3137 34.3499 19.9727 34.4365 21.5224 34.8889C21.9861 35.0237 22.253 35.5093 22.1182 35.9739C21.9835 36.4385 21.4979 36.7054 21.0332 36.5689C19.7417 36.1927 18.3575 36.1209 17.0354 36.358L14.1549 36.876C14.1006 36.8857 14.049 36.89 13.9974 36.89Z" fill="#919392"/>
<path d="M23.3502 50.6958C23.2242 50.6958 23.0974 50.6687 22.9757 50.6109L13.6246 46.1738C13.188 45.9664 13.0025 45.4449 13.209 45.0083C13.4164 44.5717 13.9387 44.3862 14.3745 44.5927L23.7256 49.0298C24.1622 49.2372 24.3477 49.7587 24.1412 50.1953C23.9916 50.512 23.6775 50.6958 23.3502 50.6958Z" fill="#919392"/>
<path d="M10.5 37.1823C10.017 37.1823 9.625 36.7903 9.625 36.3073C9.625 36.0658 9.429 35.8698 9.1875 35.8698C8.7045 35.8698 8.3125 35.4778 8.3125 34.9948C8.3125 34.5118 8.7045 34.1198 9.1875 34.1198C10.3941 34.1198 11.375 35.1015 11.375 36.3073C11.375 36.7903 10.9839 37.1823 10.5 37.1823Z" fill="#919392"/>
<path d="M9.1875 35.8698H6.5625C6.0795 35.8698 5.6875 35.4778 5.6875 34.9948C5.6875 34.5118 6.0795 34.1198 6.5625 34.1198H9.1875C9.67138 34.1198 10.0625 34.5118 10.0625 34.9948C10.0625 35.4778 9.67138 35.8698 9.1875 35.8698Z" fill="#919392"/>
<path d="M5.25 37.1823C4.767 37.1823 4.375 36.7903 4.375 36.3073C4.375 35.1015 5.35675 34.1198 6.5625 34.1198C7.04638 34.1198 7.4375 34.5118 7.4375 34.9948C7.4375 35.4778 7.04638 35.8698 6.5625 35.8698C6.32187 35.8698 6.125 36.0658 6.125 36.3073C6.125 36.7903 5.73388 37.1823 5.25 37.1823Z" fill="#919392"/>
<path d="M5.25 45.4265C4.767 45.4265 4.375 45.0345 4.375 44.5515V36.3073C4.375 35.8243 4.767 35.4323 5.25 35.4323C5.73388 35.4323 6.125 35.8243 6.125 36.3073V44.5515C6.125 45.0345 5.73388 45.4265 5.25 45.4265Z" fill="#919392"/>
<path d="M6.5625 46.739C5.35675 46.739 4.375 45.7573 4.375 44.5515C4.375 44.0685 4.767 43.6765 5.25 43.6765C5.73388 43.6765 6.125 44.0685 6.125 44.5515C6.125 44.793 6.32187 44.989 6.5625 44.989C7.04638 44.989 7.4375 45.381 7.4375 45.864C7.4375 46.347 7.04638 46.739 6.5625 46.739Z" fill="#919392"/>
<path d="M9.1875 46.739H6.5625C6.0795 46.739 5.6875 46.347 5.6875 45.864C5.6875 45.381 6.0795 44.989 6.5625 44.989H9.1875C9.67138 44.989 10.0625 45.381 10.0625 45.864C10.0625 46.347 9.67138 46.739 9.1875 46.739Z" fill="#919392"/>
<path d="M10.5 45.4265C10.017 45.4265 9.625 45.0345 9.625 44.5515V36.3073C9.625 35.8243 10.017 35.4323 10.5 35.4323C10.9839 35.4323 11.375 35.8243 11.375 36.3073V44.5515C11.375 45.0345 10.9839 45.4265 10.5 45.4265Z" fill="#919392"/>
<path d="M9.1875 46.739C8.7045 46.739 8.3125 46.347 8.3125 45.864C8.3125 45.381 8.7045 44.989 9.1875 44.989C9.429 44.989 9.625 44.793 9.625 44.5515C9.625 44.0685 10.017 43.6765 10.5 43.6765C10.9839 43.6765 11.375 44.0685 11.375 44.5515C11.375 45.7573 10.3941 46.739 9.1875 46.739Z" fill="#919392"/>
<path d="M14 42.7595C13.517 42.7595 13.125 42.3675 13.125 41.8845V36.015C13.125 35.532 13.517 35.14 14 35.14C14.4839 35.14 14.875 35.532 14.875 36.015V41.8845C14.875 42.3675 14.4839 42.7595 14 42.7595Z" fill="#919392"/>
</svg>
