<svg width="40" height="40" viewBox="0 0 40 40" fill="none" xmlns="http://www.w3.org/2000/svg">
<path fill-rule="evenodd" clip-rule="evenodd" d="M0.5 20C0.5 9.23 9.23 0.5 20 0.5C30.77 0.5 39.5 9.23 39.5 20C39.5 30.77 30.77 39.5 20 39.5C9.23 39.5 0.5 30.77 0.5 20ZM27.22 16.372C27.34 16.2121 27.4268 16.0298 27.4754 15.8359C27.5239 15.642 27.5332 15.4403 27.5027 15.2427C27.4722 15.0451 27.4025 14.8556 27.2977 14.6854C27.1929 14.5151 27.0552 14.3676 26.8925 14.2513C26.7299 14.1351 26.5456 14.0525 26.3506 14.0085C26.1556 13.9644 25.9538 13.9598 25.757 13.9949C25.5601 14.03 25.3723 14.1041 25.2046 14.2128C25.0368 14.3215 24.8924 14.4627 24.78 14.628L18.308 23.688L15.06 20.44C14.7756 20.175 14.3996 20.0308 14.011 20.0376C13.6224 20.0445 13.2516 20.2019 12.9768 20.4768C12.7019 20.7516 12.5445 21.1224 12.5376 21.511C12.5308 21.8996 12.675 22.2756 12.94 22.56L17.44 27.06C17.594 27.2139 17.7796 27.3324 17.984 27.4073C18.1884 27.4822 18.4066 27.5118 18.6235 27.4939C18.8405 27.476 19.0509 27.4111 19.2403 27.3037C19.4296 27.1963 19.5933 27.049 19.72 26.872L27.22 16.372Z" fill="#1ECA8C"/>
</svg>
