<svg width="32" height="32" viewBox="0 0 32 32" fill="none" xmlns="http://www.w3.org/2000/svg">
<path d="M4.38575 23.0494C4.75912 24.4564 5.45549 25.757 6.41951 26.8477C7.38354 27.9384 8.58866 28.7893 9.93912 29.3327C13.8284 30.8961 18.1714 30.8961 22.0607 29.3327C23.5317 28.7444 24.8284 27.7908 25.8285 26.5622C26.8286 25.3336 27.4991 23.8703 27.7768 22.3106C28.0544 20.7509 27.9299 19.1461 27.4152 17.6478C26.9005 16.1496 26.0124 14.8072 24.8349 13.7474L19.7355 9.15793C20.9261 8.99667 22.0507 8.51596 22.99 7.76687L23.8124 7.10893C23.916 7.02605 23.9824 6.90543 23.997 6.7736C24.0116 6.64178 23.9733 6.50954 23.8904 6.40599C23.8493 6.35472 23.7986 6.31203 23.7411 6.28037C23.6835 6.2487 23.6203 6.22868 23.555 6.22144C23.4232 6.20683 23.291 6.24518 23.1874 6.32806L22.3652 6.98587C21.537 7.64629 20.5398 8.06049 19.4874 8.18118C20.4393 6.61854 20.9411 4.82339 20.9374 2.99368V2.85693C20.9374 2.7717 20.9156 2.68789 20.8741 2.61345C20.8326 2.53901 20.7728 2.47642 20.7003 2.43161C20.6278 2.38681 20.545 2.36128 20.4599 2.35745C20.3748 2.35362 20.29 2.37162 20.2138 2.40974L17.9826 3.52537L16.3224 1.86493C16.2287 1.77118 16.1015 1.71851 15.9689 1.71851C15.8363 1.71851 15.7091 1.77118 15.6154 1.86493L13.9549 3.52537L11.7236 2.40974C11.6474 2.37161 11.5627 2.3536 11.4775 2.35742C11.3924 2.36124 11.3096 2.38676 11.2371 2.43157C11.1646 2.47638 11.1047 2.53898 11.0632 2.61342C11.0217 2.68787 10.9999 2.77169 10.9999 2.85693V2.88506C11.0045 4.94859 11.6431 6.96087 12.8292 8.64943L7.165 13.7473C5.88876 14.8906 4.95366 16.3646 4.46316 18.0063C3.97265 19.648 3.94586 21.3934 4.38575 23.0494ZM13.83 4.58118C13.9239 4.62811 14.0301 4.6443 14.1337 4.62748C14.2373 4.61065 14.333 4.56166 14.4072 4.48743L15.9687 2.92562L17.5306 4.48743C17.6048 4.56164 17.7005 4.61063 17.8041 4.62746C17.9076 4.64428 18.0139 4.62809 18.1077 4.58118L19.9124 3.67874C19.7904 5.31444 19.2208 6.88505 18.2659 8.21868H13.7505C12.7781 6.89074 12.1855 5.32317 12.0362 3.68406L13.83 4.58118ZM7.83394 14.4906L13.6918 9.21868H18.3081L24.1659 14.4908C25.2171 15.4369 26.0099 16.6353 26.4694 17.9729C26.9289 19.3105 27.0399 20.743 26.7921 22.1354C26.5442 23.5278 25.9457 24.8341 25.0528 25.9309C24.16 27.0278 23.0024 27.879 21.6893 28.4043C18.0383 29.8718 13.9615 29.8718 10.3106 28.4043C8.99741 27.879 7.83977 27.0278 6.94693 25.931C6.05408 24.8341 5.45548 23.5278 5.20763 22.1354C4.95978 20.743 5.07086 19.3104 5.53037 17.9728C5.98989 16.6352 6.78269 15.4368 7.83394 14.4907V14.4906Z" fill="white"/>
<path d="M10.4383 23.332L15.735 26.6425C15.8145 26.6922 15.9063 26.7185 16 26.7185C16.0937 26.7185 16.1856 26.6922 16.265 26.6425L21.5618 23.332C22.4399 22.7791 23.1299 21.9732 23.541 21.0204C23.9522 20.0677 24.0652 19.0128 23.8652 17.9945C23.7048 17.1927 23.3134 16.4552 22.7392 15.8729C22.165 15.2907 21.4331 14.889 20.6336 14.7174C19.834 14.5458 19.0017 14.6117 18.2392 14.9071C17.4766 15.2025 16.8171 15.7144 16.3418 16.3798L16 16.8583L15.6583 16.3799C15.183 15.7145 14.5234 15.2026 13.7609 14.9072C12.9983 14.6118 12.1661 14.5459 11.3665 14.7175C10.567 14.8891 9.83506 15.2907 9.26088 15.873C8.6867 16.4553 8.29531 17.1927 8.13491 17.9946C7.93491 19.0128 8.04792 20.0677 8.45907 21.0204C8.87022 21.9732 9.56024 22.7791 10.4383 23.332ZM9.11553 18.1908C9.23822 17.5806 9.53652 17.0195 9.97379 16.5765C10.411 16.1335 10.9682 15.8279 11.5768 15.6973C12.1854 15.5666 12.8189 15.6167 13.3994 15.8412C13.98 16.0658 14.4822 16.455 14.8445 16.9612L15.5932 18.0092C15.6394 18.0739 15.7005 18.1267 15.7712 18.1631C15.842 18.1996 15.9204 18.2186 16 18.2186C16.0796 18.2186 16.1581 18.1996 16.2288 18.1631C16.2996 18.1267 16.3607 18.0739 16.4069 18.0092L17.1555 16.9611C17.5175 16.4544 18.0197 16.0646 18.6004 15.8396C19.1811 15.6147 19.8149 15.5645 20.4237 15.6952C21.0326 15.8259 21.5899 16.1318 22.0272 16.5752C22.4644 17.0186 22.7624 17.5802 22.8845 18.1908C23.0454 19.0098 22.9545 19.8583 22.6238 20.6247C22.2931 21.391 21.7381 22.0392 21.0318 22.484L16 25.6289L10.9683 22.484C10.262 22.0393 9.70698 21.391 9.37627 20.6247C9.04555 19.8583 8.95465 19.0098 9.11553 18.1908Z" fill="white"/>
<path d="M17.3536 22.0721C17.4474 21.9783 17.5001 21.8511 17.5001 21.7185C17.5001 21.5859 17.4474 21.4587 17.3536 21.365C17.2598 21.2712 17.1327 21.2185 17 21.2185C16.8674 21.2185 16.7403 21.2712 16.6465 21.365C16.4749 21.5361 16.2424 21.6323 16 21.6323C15.7577 21.6323 15.5252 21.5361 15.3536 21.365L14.6465 22.0721C15.0058 22.4305 15.4926 22.6318 16 22.6318C16.5075 22.6318 16.9943 22.4305 17.3536 22.0721Z" fill="white"/>
<path d="M13.1875 20.531C13.6362 20.531 14 20.1672 14 19.7185C14 19.2698 13.6362 18.906 13.1875 18.906C12.7388 18.906 12.375 19.2698 12.375 19.7185C12.375 20.1672 12.7388 20.531 13.1875 20.531Z" fill="white"/>
<path d="M18.8125 20.531C19.2612 20.531 19.625 20.1672 19.625 19.7185C19.625 19.2698 19.2612 18.906 18.8125 18.906C18.3638 18.906 18 19.2698 18 19.7185C18 20.1672 18.3638 20.531 18.8125 20.531Z" fill="white"/>
<path d="M11.3334 26.8239C11.1785 26.7709 11.0241 26.7107 10.8742 26.6448C10.814 26.6177 10.749 26.6028 10.683 26.601C10.617 26.5992 10.5513 26.6105 10.4897 26.6341C10.4281 26.6578 10.3718 26.6935 10.324 26.7391C10.2763 26.7846 10.238 26.8392 10.2115 26.8996C10.1849 26.9601 10.1706 27.0252 10.1693 27.0912C10.168 27.1571 10.1798 27.2227 10.204 27.2842C10.2282 27.3456 10.2643 27.4016 10.3103 27.449C10.3563 27.4963 10.4111 27.5342 10.4718 27.5602C10.6474 27.6374 10.828 27.708 11.0093 27.77C11.1348 27.813 11.2721 27.8043 11.3912 27.746C11.5103 27.6876 11.6013 27.5843 11.6443 27.4589C11.6872 27.3334 11.6785 27.196 11.6202 27.0769C11.5618 26.9579 11.4586 26.8668 11.3331 26.8239H11.3334Z" fill="white"/>
<path d="M8.99729 26.6748C9.04888 26.7155 9.10796 26.7455 9.17116 26.7633C9.23437 26.7811 9.30046 26.7863 9.36567 26.7786C9.43087 26.7708 9.49391 26.7503 9.55118 26.7182C9.60846 26.6861 9.65885 26.643 9.69948 26.5914C9.74011 26.5398 9.77018 26.4807 9.78797 26.4175C9.80577 26.3543 9.81094 26.2882 9.80319 26.223C9.79544 26.1578 9.77492 26.0948 9.74281 26.0375C9.7107 25.9802 9.66763 25.9299 9.61604 25.8892C8.70865 25.1762 8.03435 24.2088 7.67923 23.1108C7.63829 22.9846 7.54891 22.8799 7.43077 22.8197C7.31263 22.7595 7.17539 22.7486 7.04926 22.7896C6.92312 22.8305 6.81842 22.9199 6.75818 23.038C6.69794 23.1562 6.6871 23.2934 6.72804 23.4195C7.14413 24.706 7.93417 25.8394 8.99729 26.6748Z" fill="white"/>
</svg>
