<svg width="48" height="48" viewBox="0 0 48 48" fill="none" xmlns="http://www.w3.org/2000/svg">
<path d="M40.968 7.02688C31.594 -2.34428 16.398 -2.34203 7.02682 7.03204C-2.34434 16.4061 -2.34209 31.602 7.03197 40.9732C16.406 50.3443 31.602 50.3421 40.9731 40.968C45.4737 36.4661 48.0014 30.3606 48 23.9949C47.9987 17.6302 45.4692 11.5267 40.968 7.02688ZM36.3471 33.4318C36.3461 33.4328 36.3451 33.4339 36.3439 33.4349V33.427L35.1279 34.6349C33.5553 36.2275 31.2648 36.8827 29.0879 36.3629C26.8946 35.7759 24.8096 34.8414 22.9119 33.595C21.1488 32.4682 19.515 31.151 18.0399 29.6669C16.6827 28.3197 15.4634 26.8403 14.3999 25.2509C13.2366 23.5408 12.3159 21.6778 11.6639 19.7149C10.9164 17.409 11.5358 14.8788 13.2639 13.1789L14.6879 11.755C15.0838 11.3573 15.7271 11.3559 16.1247 11.7518C16.1257 11.7528 16.1269 11.7538 16.1279 11.755L20.6238 16.2509C21.0215 16.6468 21.0229 17.2902 20.627 17.6878C20.626 17.6888 20.625 17.6898 20.6238 17.6909L17.9839 20.3309C17.2264 21.0802 17.1311 22.2708 17.7599 23.131C18.7147 24.4414 19.7714 25.6745 20.9199 26.819C22.2004 28.1051 23.5925 29.275 25.0799 30.315C25.9393 30.9145 27.1044 30.8134 27.8478 30.075L30.3998 27.483C30.7957 27.0853 31.439 27.0839 31.8366 27.4798C31.8377 27.4809 31.8387 27.4819 31.8398 27.483L36.3438 31.995C36.7416 32.3908 36.743 33.0341 36.3471 33.4318Z" fill="#EEAA21"/>
</svg>
