<svg width="24" height="24" viewBox="0 0 24 24" fill="none" xmlns="http://www.w3.org/2000/svg">
<g clip-path="url(#clip0_52_567)">
<path d="M22.7453 4.91563C22.7453 4.7216 22.6964 4.53069 22.6032 4.36051C22.51 4.19034 22.3754 4.04636 22.2119 3.94186C22.0484 3.83736 21.8613 3.77569 21.6677 3.76254C21.4741 3.74939 21.2803 3.78518 21.1042 3.86662V3.69599C21.1042 3.49837 21.0536 3.30405 20.9571 3.13159C20.8606 2.95912 20.7215 2.81429 20.553 2.71093C20.3846 2.60757 20.1925 2.54914 19.995 2.54122C19.7976 2.53329 19.6014 2.57615 19.4252 2.66568C19.3791 2.49372 19.2939 2.33473 19.1762 2.2011C19.0586 2.06746 18.9116 1.9628 18.7469 1.89525C18.5822 1.8277 18.4041 1.79909 18.2265 1.81165C18.0489 1.82421 17.8766 1.8776 17.723 1.96766C17.6151 1.72585 17.4274 1.5284 17.1914 1.40831C16.9554 1.28821 16.6853 1.25275 16.4263 1.30784C16.1673 1.36294 15.9351 1.50525 15.7684 1.71101C15.6017 1.91676 15.5106 2.17349 15.5105 2.43829V7.79362L14.6072 6.89052C14.3899 6.67386 14.0956 6.55223 13.7888 6.55234C13.4819 6.55244 13.1877 6.67427 12.9706 6.89108C12.5354 7.32815 12.5293 8.02401 12.9565 8.50977L15.5703 11.477C15.432 11.5713 15.3189 11.698 15.2408 11.846C15.1626 11.9939 15.1217 12.1587 15.1216 12.3261V14.1983C15.122 14.413 15.1894 14.6222 15.3144 14.7968C15.4395 14.9713 15.6159 15.1024 15.8191 15.1717V23.664C15.8191 23.7081 15.8278 23.7518 15.8447 23.7925C15.8615 23.8333 15.8863 23.8703 15.9175 23.9015C15.9487 23.9327 15.9857 23.9574 16.0264 23.9743C16.0672 23.9912 16.1108 23.9998 16.1549 23.9998C16.199 23.9998 16.2427 23.9912 16.2834 23.9743C16.3242 23.9574 16.3612 23.9327 16.3924 23.9015C16.4236 23.8703 16.4483 23.8333 16.4652 23.7925C16.482 23.7518 16.4907 23.7081 16.4907 23.664V15.2273H20.986V23.664C20.9855 23.7085 20.9938 23.7526 21.0105 23.7938C21.0271 23.835 21.0518 23.8725 21.083 23.9041C21.1142 23.9357 21.1514 23.9608 21.1924 23.9779C21.2334 23.995 21.2774 24.0039 21.3219 24.0039C21.3663 24.0039 21.4103 23.995 21.4513 23.9779C21.4923 23.9608 21.5295 23.9357 21.5608 23.9041C21.592 23.8725 21.6167 23.835 21.6333 23.7938C21.6499 23.7526 21.6582 23.7085 21.6577 23.664V15.1715C21.8609 15.1021 22.0374 14.971 22.1624 14.7965C22.2875 14.622 22.3549 14.4128 22.3553 14.1981V12.3258C22.3551 12.1528 22.3113 11.9827 22.228 11.8311C22.1447 11.6795 22.0244 11.5514 21.8785 11.4586C22.368 10.4894 22.7456 9.68924 22.7456 8.40707L22.7453 4.91563ZM21.6834 14.1981C21.6821 14.2925 21.6441 14.3827 21.5773 14.4495C21.5105 14.5163 21.4202 14.5544 21.3258 14.5556H16.1508C16.056 14.5555 15.9651 14.5178 15.8981 14.4508C15.8311 14.3837 15.7933 14.2928 15.7932 14.1981V12.3258C15.7933 12.231 15.831 12.1401 15.8981 12.0731C15.9651 12.006 16.056 11.9683 16.1508 11.9682H21.3258C21.4202 11.9695 21.5105 12.0075 21.5773 12.0743C21.6441 12.1411 21.6821 12.2314 21.6834 12.3258V14.1981ZM22.0734 8.40726C22.0734 9.58644 21.7125 10.2995 21.2125 11.2865L21.2075 11.2965H16.3067L13.4607 8.06577C13.2703 7.84926 13.2642 7.5479 13.4461 7.36527C13.5371 7.27441 13.6605 7.22338 13.7892 7.22338C13.9178 7.22338 14.0412 7.27441 14.1323 7.36527L15.6088 8.84183C15.6558 8.8888 15.7156 8.92078 15.7808 8.93373C15.8459 8.94669 15.9135 8.94004 15.9748 8.91462C16.0362 8.8892 16.0886 8.84616 16.1255 8.79094C16.1624 8.73571 16.1821 8.67079 16.1822 8.60437V2.43829C16.1822 2.30973 16.2332 2.18644 16.3241 2.09553C16.415 2.00463 16.5383 1.95355 16.6669 1.95355C16.7955 1.95355 16.9187 2.00463 17.0097 2.09553C17.1006 2.18644 17.1516 2.30973 17.1516 2.43829V6.6749C17.1511 6.71933 17.1594 6.76343 17.176 6.80464C17.1927 6.84584 17.2173 6.88334 17.2486 6.91495C17.2798 6.94656 17.317 6.97165 17.358 6.98878C17.399 7.0059 17.443 7.01472 17.4875 7.01472C17.5319 7.01472 17.5759 7.0059 17.6169 6.98878C17.6579 6.97165 17.6951 6.94656 17.7263 6.91495C17.7576 6.88334 17.7822 6.84584 17.7989 6.80464C17.8155 6.76343 17.8238 6.71933 17.8233 6.6749V2.96451C17.8233 2.83595 17.8744 2.71265 17.9653 2.62175C18.0562 2.53084 18.1795 2.47977 18.308 2.47977C18.4366 2.47977 18.5599 2.53084 18.6508 2.62175C18.7417 2.71265 18.7928 2.83595 18.7928 2.96451V6.87079C18.7928 6.95985 18.8281 7.04527 18.8911 7.10824C18.9541 7.17122 19.0395 7.2066 19.1286 7.2066C19.2176 7.2066 19.3031 7.17122 19.366 7.10824C19.429 7.04527 19.4644 6.95985 19.4644 6.87079V3.69599C19.4656 3.56844 19.5172 3.44653 19.6078 3.35678C19.6985 3.26703 19.8209 3.21668 19.9484 3.21668C20.076 3.21668 20.1984 3.26703 20.2891 3.35678C20.3797 3.44653 20.4312 3.56844 20.4325 3.69599V6.87079C20.432 6.91522 20.4403 6.95932 20.4569 7.00053C20.4736 7.04173 20.4982 7.07923 20.5294 7.11084C20.5607 7.14245 20.5979 7.16754 20.6389 7.18467C20.6799 7.2018 20.7239 7.21061 20.7683 7.21061C20.8128 7.21061 20.8568 7.2018 20.8978 7.18467C20.9388 7.16754 20.976 7.14245 21.0072 7.11084C21.0385 7.07923 21.0631 7.04173 21.0798 7.00053C21.0964 6.95932 21.1047 6.91522 21.1042 6.87079V4.91563C21.1054 4.7879 21.157 4.66583 21.2478 4.57596C21.3386 4.48608 21.4612 4.43566 21.5889 4.43566C21.7166 4.43566 21.8392 4.48608 21.93 4.57596C22.0207 4.66583 22.0723 4.7879 22.0736 4.91563L22.0734 8.40726ZM12.6171 10.6738C12.4495 10.6736 12.2838 10.71 12.1317 10.7805V10.6099C12.132 10.412 12.0814 10.2174 11.9849 10.0447C11.8884 9.87196 11.7491 9.7269 11.5805 9.62341C11.4119 9.51991 11.2195 9.46145 11.0217 9.45361C10.824 9.44578 10.6276 9.48884 10.4513 9.57866C10.4054 9.40657 10.3203 9.24742 10.2027 9.11366C10.0851 8.97989 9.93814 8.87513 9.77335 8.80755C9.60855 8.73997 9.43036 8.71142 9.2527 8.7241C9.07503 8.73679 8.90271 8.79038 8.74919 8.88069C8.64138 8.63864 8.4537 8.44096 8.21756 8.32073C7.98142 8.20051 7.71116 8.16504 7.45199 8.22026C7.19283 8.27548 6.9605 8.41804 6.79388 8.62408C6.62726 8.83012 6.53647 9.08714 6.53669 9.35212V14.707L5.63341 13.8028C5.41626 13.5868 5.12237 13.4655 4.81603 13.4655C4.50968 13.4655 4.21579 13.5868 3.99864 13.8028C3.56186 14.2396 3.55553 14.9362 3.98411 15.4235L6.59758 18.3903C6.4594 18.4848 6.34634 18.6115 6.26821 18.7595C6.19007 18.9075 6.14921 19.0723 6.14917 19.2397V21.1106C6.14944 21.3254 6.21682 21.5347 6.34188 21.7092C6.46694 21.8838 6.64343 22.0149 6.84667 22.0843V23.664C6.84615 23.7084 6.85445 23.7525 6.87109 23.7937C6.88773 23.8349 6.91238 23.8724 6.94362 23.904C6.97486 23.9356 7.01206 23.9607 7.05307 23.9779C7.09407 23.995 7.13807 24.0038 7.18251 24.0038C7.22695 24.0038 7.27095 23.995 7.31195 23.9779C7.35296 23.9607 7.39016 23.9356 7.4214 23.904C7.45263 23.8724 7.47729 23.8349 7.49393 23.7937C7.51057 23.7525 7.51887 23.7084 7.51834 23.664V22.1398H12.012V23.664C12.0115 23.7085 12.0198 23.7526 12.0364 23.7938C12.0531 23.835 12.0777 23.8725 12.109 23.9041C12.1402 23.9357 12.1774 23.9608 12.2184 23.9779C12.2594 23.995 12.3034 24.0039 12.3479 24.0039C12.3923 24.0039 12.4363 23.995 12.4773 23.9779C12.5183 23.9608 12.5555 23.9357 12.5867 23.9041C12.618 23.8725 12.6426 23.835 12.6593 23.7938C12.6759 23.7526 12.6842 23.7085 12.6837 23.664V22.0843C12.8872 22.0152 13.064 21.8842 13.1893 21.7095C13.3147 21.5349 13.3822 21.3255 13.3826 21.1105V19.2397C13.3824 19.0667 13.3387 18.8966 13.2553 18.745C13.172 18.5934 13.0518 18.4653 12.9058 18.3725C13.3954 17.4033 13.773 16.603 13.773 15.3196V11.8295C13.7726 11.5231 13.6507 11.2293 13.434 11.0126C13.2173 10.796 12.9236 10.6741 12.6171 10.6738ZM12.7109 21.1106C12.7108 21.2054 12.673 21.2963 12.606 21.3633C12.539 21.4303 12.4481 21.468 12.3533 21.4681H7.1771C7.08247 21.4679 6.99182 21.4301 6.92503 21.363C6.85824 21.296 6.82077 21.2052 6.82085 21.1106V19.2397C6.82077 19.1451 6.85824 19.0543 6.92502 18.9872C6.99181 18.9202 7.08246 18.8824 7.1771 18.8821H12.3534C12.4482 18.8822 12.5391 18.9199 12.6061 18.9869C12.6732 19.054 12.7109 19.1449 12.711 19.2397L12.7109 21.1106ZM13.1011 15.3198C13.1011 16.5003 12.7401 17.2135 12.2401 18.2007L12.2351 18.2104H7.33427L4.48835 14.9796C4.29714 14.7623 4.29086 14.4606 4.47311 14.2783C4.56408 14.1877 4.68722 14.1368 4.81562 14.1366C4.94402 14.1365 5.06724 14.1872 5.15838 14.2777L6.63494 15.7557C6.68188 15.8027 6.74172 15.8347 6.80688 15.8477C6.87204 15.8607 6.93959 15.8541 7.00098 15.8287C7.06237 15.8032 7.11484 15.7602 7.15175 15.7049C7.18866 15.6497 7.20834 15.5847 7.20831 15.5183V9.35221C7.20831 9.22365 7.25938 9.10036 7.35029 9.00945C7.44119 8.91854 7.56449 8.86747 7.69305 8.86747C7.82161 8.86747 7.9449 8.91854 8.03581 9.00945C8.12671 9.10036 8.17778 9.22365 8.17778 9.35221V13.589C8.17883 13.6773 8.21467 13.7617 8.27754 13.8239C8.3404 13.886 8.42523 13.9208 8.51362 13.9208C8.60201 13.9208 8.68683 13.886 8.7497 13.8239C8.81257 13.7617 8.84841 13.6773 8.84945 13.589V9.87843C8.84882 9.81437 8.8609 9.75083 8.88497 9.69147C8.90905 9.63211 8.94465 9.57811 8.98973 9.53259C9.0348 9.48707 9.08844 9.45094 9.14757 9.42628C9.20669 9.40162 9.27011 9.38893 9.33417 9.38893C9.39822 9.38893 9.46165 9.40162 9.52077 9.42628C9.57989 9.45094 9.63353 9.48707 9.67861 9.53259C9.72368 9.57811 9.75928 9.63211 9.78336 9.69147C9.80743 9.75083 9.81951 9.81437 9.81888 9.87843V13.7834C9.81992 13.8718 9.85576 13.9562 9.91863 14.0183C9.9815 14.0804 10.0663 14.1153 10.1547 14.1153C10.2431 14.1153 10.3279 14.0804 10.3908 14.0183C10.4537 13.9562 10.4895 13.8718 10.4905 13.7834V10.61C10.4905 10.4814 10.5416 10.3581 10.6325 10.2672C10.7234 10.1763 10.8467 10.1252 10.9753 10.1252C11.1038 10.1252 11.2271 10.1763 11.318 10.2672C11.4089 10.3581 11.46 10.4814 11.46 10.61V13.7834C11.4611 13.8718 11.4969 13.9562 11.5598 14.0183C11.6226 14.0804 11.7075 14.1153 11.7959 14.1153C11.8842 14.1153 11.9691 14.0804 12.0319 14.0183C12.0948 13.9562 12.1306 13.8718 12.1317 13.7834V11.8295C12.1329 11.7018 12.1846 11.5797 12.2753 11.4898C12.3661 11.4 12.4887 11.3495 12.6164 11.3495C12.7441 11.3495 12.8667 11.4 12.9575 11.4898C13.0482 11.5797 13.0999 11.7018 13.1011 11.8295L13.1011 15.3198ZM9.88591 6.74933C9.94623 6.81021 10.018 6.85856 10.0971 6.8916C10.1762 6.92464 10.261 6.94171 10.3467 6.94184C10.4324 6.94197 10.5173 6.92516 10.5965 6.89236C10.6757 6.85956 10.7476 6.81143 10.8081 6.75074L13.8039 3.75646C14.2167 3.34343 14.4486 2.7833 14.4485 2.1993C14.4483 1.6153 14.2162 1.05528 13.8032 0.642415C13.3902 0.229554 12.83 -0.00232029 12.246 -0.00219722C11.662 -0.00207415 11.102 0.230036 10.6892 0.643071L10.3479 0.985727L10.0059 0.642415C9.59232 0.232385 9.03314 0.00289784 8.45075 0.00417961C7.86836 0.00546137 7.3102 0.237407 6.89842 0.649254C6.48664 1.0611 6.25479 1.6193 6.2536 2.20169C6.25242 2.78408 6.482 3.34322 6.8921 3.75674L9.88591 6.74933ZM7.3668 1.11777C7.65419 0.83173 8.04313 0.671091 8.44861 0.670968C8.85409 0.670845 9.24313 0.831248 9.53069 1.11712L9.88741 1.47524C10.0096 1.59719 10.1752 1.66567 10.3478 1.66567C10.5205 1.66567 10.6861 1.59719 10.8083 1.47524L10.8087 1.47477L11.1643 1.11777C11.4513 0.830756 11.8405 0.669484 12.2463 0.669435C12.6522 0.669387 13.0415 0.830566 13.3285 1.11752C13.6155 1.40447 13.7768 1.79368 13.7768 2.19954C13.7769 2.60539 13.6157 2.99465 13.3287 3.28166L10.3479 6.26123L7.36722 3.28194C7.08113 2.99451 6.92049 2.60549 6.92041 2.19995C6.92033 1.7944 7.08082 1.40532 7.3668 1.11777ZM4.27497 9.57993C4.34872 9.58008 4.42178 9.56567 4.48994 9.53751C4.55811 9.50936 4.62004 9.46802 4.67219 9.41586L6.80814 7.27958C7.11533 6.96594 7.28639 6.54376 7.28415 6.10475C7.28192 5.66573 7.10659 5.24532 6.79623 4.93481C6.48586 4.6243 6.06554 4.44876 5.62652 4.44632C5.1875 4.44388 4.76525 4.61473 4.45145 4.92177L4.27497 5.09807L4.09835 4.92177C3.78455 4.61473 3.3623 4.44388 2.92328 4.44632C2.48426 4.44876 2.06394 4.6243 1.75357 4.93481C1.44321 5.24532 1.26788 5.66573 1.26565 6.10475C1.26342 6.54376 1.43447 6.96594 1.74166 7.27958L3.87766 9.41568C3.9298 9.46787 3.99174 9.50925 4.05993 9.53744C4.12811 9.56563 4.20119 9.58007 4.27497 9.57993ZM2.21655 5.39648C2.40327 5.21022 2.65624 5.10562 2.91998 5.10562C3.18371 5.10562 3.43669 5.21022 3.62341 5.39648L3.8777 5.65082C3.98315 5.75597 4.12599 5.81502 4.2749 5.81502C4.42381 5.81502 4.56665 5.75597 4.6721 5.65082L4.92635 5.39652C5.01881 5.30415 5.12856 5.23089 5.24933 5.18093C5.37011 5.13097 5.49954 5.10528 5.63024 5.10534C5.76094 5.10541 5.89035 5.13121 6.01107 5.18128C6.1318 5.23136 6.24149 5.30472 6.33386 5.39718C6.42624 5.48964 6.4995 5.59939 6.54946 5.72017C6.59942 5.84094 6.6251 5.97037 6.62504 6.10107C6.62498 6.23177 6.59917 6.36118 6.5491 6.48191C6.49903 6.60264 6.42567 6.71232 6.3332 6.80469L4.27497 8.86297L2.21716 6.80516C2.03075 6.61818 1.92603 6.36497 1.92592 6.10094C1.9258 5.83692 2.03031 5.58361 2.21655 5.39648Z" fill="#1ECA8C"/>
</g>
<defs>
<clipPath id="clip0_52_567">
<rect width="24" height="24" fill="white"/>
</clipPath>
</defs>
</svg>
