<svg width="20" height="20" viewBox="0 0 20 20" fill="none" xmlns="http://www.w3.org/2000/svg">
<path d="M14.6268 6.17892C14.6666 6.17884 14.7057 6.16832 14.7401 6.14842C14.7746 6.12852 14.8033 6.09993 14.8232 6.0655C14.8272 6.05859 14.8293 6.05075 14.8293 6.04277C14.8293 6.03479 14.8272 6.02695 14.8232 6.02004C14.8033 5.98555 14.7747 5.95692 14.7402 5.93701C14.7057 5.9171 14.6666 5.90662 14.6268 5.90662C14.5869 5.90662 14.5478 5.9171 14.5133 5.93701C14.4789 5.95692 14.4502 5.98555 14.4303 6.02004C14.4263 6.02695 14.4242 6.03479 14.4242 6.04277C14.4242 6.05075 14.4263 6.05859 14.4303 6.0655C14.4503 6.09993 14.4789 6.12852 14.5134 6.14842C14.5479 6.16832 14.587 6.17884 14.6268 6.17892ZM14.6268 5.99739C14.6459 5.99743 14.6648 6.00149 14.6823 6.00931C14.6998 6.01713 14.7154 6.02853 14.7282 6.04277C14.7154 6.05705 14.6998 6.06847 14.6823 6.07629C14.6648 6.08411 14.6459 6.08816 14.6268 6.08816C14.6076 6.08816 14.5887 6.08411 14.5712 6.07629C14.5538 6.06847 14.5381 6.05705 14.5254 6.04277C14.5382 6.02853 14.5538 6.01713 14.5712 6.00931C14.5887 6.00149 14.6076 5.99743 14.6268 5.99739Z" fill="#F8F8F8"/>
<path d="M15.5912 14.9451C15.4288 14.8119 15.237 14.6698 15.0195 14.5212C16.0936 13.881 16.8374 12.5368 16.8374 11.1515C16.8374 9.89594 16.3427 8.3912 15.2374 7.85996C14.7803 7.64027 14.077 7.52625 13.1534 8.0324C13.1093 7.59098 12.9751 7.22196 12.8489 6.87549C12.6103 6.22093 12.4219 5.70393 12.8563 4.83515L12.4141 4.61404C11.8845 5.67325 12.1386 6.37048 12.3844 7.04479C12.5273 7.43689 12.6729 7.83694 12.6718 8.34093C12.6594 8.34986 12.6474 8.35826 12.6351 8.36741C11.9566 7.86271 11.3774 7.68523 10.9048 7.67432V6.20774C10.9045 6.1543 10.8872 6.10234 10.8554 6.05942L9.42172 4.14784V2.74707C9.42172 2.68151 9.39568 2.61864 9.34932 2.57228C9.30296 2.52592 9.24009 2.49988 9.17453 2.49988H4.7251C4.65954 2.49988 4.59667 2.52592 4.55031 2.57228C4.50395 2.61864 4.47791 2.68151 4.47791 2.74707V4.14784L3.0442 6.05942C3.01237 6.10234 2.99505 6.1543 2.99477 6.20774V11.5577C2.77336 11.6919 2.6123 11.9064 2.54516 12.1565C2.44075 12.5167 2.46646 13.0402 3.18192 13.4893C3.34807 13.5912 3.5228 13.6785 3.70411 13.7502C2.97141 14.1485 2.88368 14.637 2.88631 14.8585C2.89172 15.3112 3.24539 15.7051 3.78732 15.8623C3.86787 15.8852 3.95127 15.8967 4.03504 15.8962C4.48044 15.8962 5.03032 15.595 5.67419 14.9971C5.86777 14.8174 6.04497 14.6344 6.19304 14.4727C6.21917 14.6923 6.29738 14.9025 6.42117 15.0858C6.72132 15.5303 7.29403 15.8489 8.33612 16.1509C9.33771 16.4412 11.2305 16.7164 12.8368 16.8054C13.2109 16.8261 13.5626 16.8363 13.886 16.8363C14.2783 16.8396 14.6704 16.8195 15.0602 16.776C15.8193 16.6823 16.2181 16.4825 16.3153 16.1472C16.4125 15.8119 16.1824 15.4302 15.5912 14.9451ZM12.6074 8.92452C12.5725 9.0866 12.5269 9.24621 12.471 9.4023C12.3714 9.37958 12.2775 9.33659 12.1952 9.27602C12.1129 9.21546 12.0439 9.1386 11.9926 9.05024L11.5646 9.2978C11.6732 9.48565 11.8292 9.64163 12.0171 9.75007C12.205 9.85851 12.4182 9.9156 12.6351 9.9156C12.8521 9.9156 13.0652 9.85851 13.2531 9.75007C13.441 9.64163 13.597 9.48565 13.7056 9.2978L13.2776 9.05024C13.215 9.15807 13.1262 9.24839 13.0195 9.31288C13.0879 9.08263 13.1337 8.84621 13.156 8.60703C13.8524 8.15523 14.492 8.05014 15.0231 8.30543C15.8003 8.67902 16.3431 9.84935 16.3431 11.1515C16.3431 12.4413 15.5786 13.7318 14.5468 14.2133C14.296 14.0567 14.0218 13.8953 13.728 13.7312C12.3231 12.9474 10.5763 12.1677 9.57489 11.8775C9.35912 11.815 9.16022 11.764 8.97573 11.724C8.94385 11.5349 8.92767 11.3434 8.92734 11.1515C8.92734 9.84935 9.47008 8.67902 10.2472 8.30555C10.8703 8.00605 11.6426 8.20216 12.4808 8.87267C12.5172 8.9016 12.5611 8.91958 12.6074 8.92452ZM3.48915 6.45493H7.4442V7.93807H3.48915V6.45493ZM7.93858 6.45493H10.4105V7.72592C10.2803 7.75707 10.1537 7.802 10.033 7.85996C8.92771 8.3912 8.43296 9.89594 8.43296 11.1515C8.43316 11.3142 8.44342 11.4766 8.46367 11.6379C8.28946 11.6169 8.11368 11.612 7.93858 11.6234V6.45493ZM8.18577 5.96055L9.17453 4.64219L10.1633 5.96055H8.18577ZM4.97229 2.99426H8.92734V3.98302H4.97229V2.99426ZM4.84869 4.4774H8.68015L7.56779 5.96055H3.73634L4.84869 4.4774ZM3.48915 8.43245H7.4442V11.7302C7.42495 11.7377 7.40582 11.7454 7.38706 11.7536C7.18452 11.842 7.00601 11.9776 6.86639 12.1489C6.82761 11.9332 6.77592 11.6842 6.70853 11.4292C6.44048 10.4147 6.05965 9.82933 5.57661 9.68935C5.03464 9.53226 4.52506 9.67607 4.27849 10.0558C4.15798 10.2414 3.9707 10.7012 4.37687 11.4296C4.18531 11.3932 3.99094 11.3736 3.79597 11.3709H3.7867C3.68721 11.3705 3.58782 11.3773 3.4893 11.3912L3.48915 8.43245ZM3.92482 15.3874C3.59692 15.2924 3.38329 15.0824 3.38054 14.8526C3.37745 14.5906 3.66481 14.2189 4.48097 13.9612C4.53155 13.9452 4.57565 13.9134 4.60675 13.8704C4.63784 13.8274 4.65429 13.7756 4.65365 13.7225C4.65301 13.6695 4.63533 13.618 4.60321 13.5758C4.57109 13.5336 4.52624 13.5028 4.47528 13.4881C3.35702 13.1639 2.8809 12.7734 3.01995 12.2941C3.10263 12.0088 3.35264 11.8666 3.7774 11.8666C4.06615 11.8666 4.43573 11.9324 4.88834 12.0635C4.93929 12.0783 4.99365 12.0763 5.04337 12.0578C5.0931 12.0393 5.13554 12.0053 5.16445 11.9608C5.19335 11.9163 5.20717 11.8637 5.20386 11.8107C5.20056 11.7578 5.1803 11.7073 5.1461 11.6667C4.59434 11.0125 4.55021 10.5447 4.69293 10.3251C4.81817 10.1323 5.11096 10.0692 5.43886 10.1642C5.974 10.3193 6.35887 11.7991 6.4681 12.8288L6.21961 13.6861C5.57667 14.4979 4.46011 15.5425 3.92497 15.3874H3.92482ZM15.8406 16.01C15.8061 16.1292 15.1852 16.4405 12.8642 16.312C12.4747 16.2904 12.0684 16.2578 11.6629 16.2167L11.9043 15.3838L11.4295 15.2462L11.1641 16.1618C10.1074 16.0364 9.1051 15.8593 8.47378 15.6763C7.56449 15.4128 7.05778 15.1454 6.83088 14.8094C6.62386 14.5029 6.62022 14.0799 6.81853 13.3951C7.01683 12.7103 7.24629 12.3548 7.58516 12.2065C7.72914 12.1435 7.90307 12.1116 8.11513 12.1116C8.45014 12.1116 8.88019 12.1911 9.43702 12.3525C9.51142 12.3741 9.59058 12.3988 9.67314 12.4258L9.05517 14.5581L9.52999 14.6957L10.1401 12.5906C11.1124 12.9558 12.4012 13.5573 13.4869 14.1631C13.751 14.3104 13.9864 14.4485 14.1967 14.5778L13.9413 15.4595L14.4161 15.5971L14.6311 14.8555C15.6599 15.5425 15.8672 15.918 15.8406 16.01Z" fill="#F8F8F8"/>
</svg>
