<svg width="124" height="34" viewBox="0 0 124 34" fill="none" xmlns="http://www.w3.org/2000/svg">
<path d="M0.0890914 12.9551C-0.0943111 12.6373 0.0145279 12.231 0.33219 12.0476L21.0386 0.0891181C21.3563 -0.0943393 21.7625 0.0145322 21.9459 0.33229L33.9008 21.0449C34.0842 21.3627 33.9753 21.769 33.6577 21.9524L12.9512 33.9109C12.6336 34.0943 12.2274 33.9855 12.044 33.6677L0.0890914 12.9551Z" fill="#1ECA8C"/>
<path d="M24.663 4.43614C24.663 4.46251 24.2767 4.76133 23.8114 5.12166C22.1961 6.32571 20.8441 7.51218 19.2199 9.14687C13.5925 14.7628 11.5031 19.869 13.2589 23.6482C13.3994 23.9558 13.6276 24.3513 13.7505 24.5095C14.1983 25.0983 13.8471 24.8874 13.1009 24.1228C11.6875 22.6814 11.0554 21.1961 11.0554 19.2978C11.0554 18.2959 11.1695 17.6016 11.5119 16.5381C12.5917 13.1457 15.7434 9.42811 19.7906 6.77393C21.1338 5.89506 23.469 4.76133 24.6454 4.40978C24.6542 4.40099 24.663 4.41857 24.663 4.43614ZM16.3755 5.22712C17.1744 5.59625 17.5431 6.3345 17.3324 7.16063C16.9461 8.67228 14.6724 8.90958 13.891 7.52097C13.0658 6.06205 14.7777 4.48009 16.3755 5.22712ZM10.8183 7.22215C11.7489 7.69674 14.5143 9.70056 14.6197 9.9818C14.646 10.0433 14.4704 10.3421 14.2422 10.6497C14.0051 10.9573 13.7505 11.3089 13.6628 11.4319L13.5135 11.6429L13.1448 11.2825C12.539 10.6937 10.871 9.48963 10.0984 9.07656C9.70337 8.86563 9.38732 8.67228 9.38732 8.64592C9.38732 8.52288 10.3267 7.03759 10.4057 7.03759C10.432 7.03759 10.6164 7.12548 10.8183 7.22215ZM17.7802 13.1193C18.8424 14.8419 19.7555 17.0567 20.2471 19.1396C20.4666 20.0976 20.4929 20.3085 20.4841 21.9344C20.4841 23.9734 20.37 24.527 19.7116 25.8893C18.8951 27.5591 17.5431 28.7632 15.6029 29.5629C15.1201 29.7651 15.1991 29.6245 15.8224 29.1675C17.3061 28.0777 18.3157 26.4166 18.6054 24.5973C18.781 23.5339 18.6756 21.5477 18.3947 20.2997C17.9996 18.5683 17.1305 16.2745 16.3316 14.8419L15.9014 14.0773L16.3579 13.427C16.9988 12.5041 17.1481 12.3196 17.2183 12.3108C17.2534 12.3108 17.508 12.6799 17.7802 13.1193Z" fill="#181D1A"/>
<path d="M40.5239 22.037V10.4896H42.375V15.1968H47.2937V10.4896H49.1448V22.037H47.2937V16.8187H42.375V22.037H40.5239ZM55.283 22.2486C54.2135 22.2486 53.2674 21.8549 52.4447 21.0674C51.6337 20.28 51.2282 19.1693 51.2282 17.7354C51.2282 16.3015 51.6337 15.1909 52.4447 14.4034C53.2674 13.6042 54.2135 13.2046 55.283 13.2046C56.3526 13.2046 57.2987 13.6042 58.1214 14.4034C58.9441 15.1909 59.3555 16.3015 59.3555 17.7354C59.3555 19.1693 58.9441 20.28 58.1214 21.0674C57.2987 21.8549 56.3526 22.2486 55.283 22.2486ZM55.283 20.7501C55.953 20.7501 56.4819 20.4739 56.8697 19.9215C57.2693 19.3691 57.4691 18.6404 57.4691 17.7354C57.4691 16.8304 57.2693 16.1017 56.8697 15.5493C56.4819 14.9852 55.953 14.7031 55.283 14.7031C54.6131 14.7031 54.0784 14.9852 53.6788 15.5493C53.2909 16.1017 53.097 16.8304 53.097 17.7354C53.097 18.6404 53.2909 19.3691 53.6788 19.9215C54.0784 20.4739 54.6131 20.7501 55.283 20.7501ZM64.9595 20.7325C65.5824 20.7325 66.0996 20.4621 66.5109 19.9215C66.934 19.3809 67.1456 18.611 67.1456 17.612C67.1456 16.7188 66.9869 16.0136 66.6696 15.4965C66.364 14.9793 65.8527 14.7208 65.1358 14.7208C64.4894 14.7208 63.8136 15.0675 63.1084 15.7609V19.9568C63.4375 20.2388 63.7607 20.4386 64.078 20.5562C64.4071 20.6737 64.7009 20.7325 64.9595 20.7325ZM61.2749 25.5277V13.4162H62.7911L62.9321 14.3505H62.985C63.3493 14.0332 63.7607 13.7629 64.2191 13.5396C64.6774 13.3163 65.1476 13.2046 65.6294 13.2046C66.7225 13.2046 67.5628 13.6042 68.1505 14.4034C68.7381 15.2026 69.032 16.2663 69.032 17.5944C69.032 19.0635 68.6559 20.2094 67.9037 21.0322C67.1515 21.8431 66.2935 22.2486 65.3297 22.2486C64.5893 22.2486 63.8312 21.9254 63.0555 21.279L63.1084 22.7422V25.5277H61.2749ZM74.5949 22.2486C73.4196 22.2486 72.4265 21.8549 71.6155 21.0674C70.8046 20.2682 70.3991 19.1575 70.3991 17.7354C70.3991 16.7952 70.5871 15.9901 70.9632 15.3202C71.3393 14.6385 71.8271 14.1155 72.4265 13.7511C73.0259 13.3868 73.6606 13.2046 74.3305 13.2046C75.4823 13.2046 76.3579 13.5807 76.9573 14.3329C77.5567 15.0733 77.8564 16.0547 77.8564 17.277C77.8564 17.6649 77.827 17.9764 77.7683 18.2114H72.1797C72.2619 19.0224 72.5381 19.6629 73.0083 20.133C73.4901 20.5914 74.1013 20.8206 74.8417 20.8206C75.2178 20.8206 75.5704 20.7618 75.8995 20.6443C76.2404 20.5268 76.5694 20.3681 76.8868 20.1683L77.5215 21.3319C77.1218 21.5904 76.6752 21.8079 76.1816 21.9842C75.688 22.1605 75.1591 22.2486 74.5949 22.2486ZM72.162 16.9421H76.2697C76.2697 15.4024 75.6351 14.6326 74.3657 14.6326C73.8251 14.6326 73.3432 14.8324 72.9201 15.232C72.497 15.6316 72.2443 16.2016 72.162 16.9421ZM79.671 22.037V13.4162H81.1872L81.3282 14.9499H81.3811C82.004 13.7864 82.8209 13.2046 83.8316 13.2046C84.2195 13.2046 84.5368 13.2634 84.7836 13.3809L84.4663 14.9676C84.3135 14.9206 84.1725 14.8853 84.0432 14.8618C83.9256 14.8383 83.7729 14.8265 83.5848 14.8265C83.244 14.8265 82.8796 14.9676 82.4918 15.2496C82.1039 15.52 81.7748 15.996 81.5045 16.6776V22.037H79.671ZM88.0956 20.803C88.46 20.803 88.8008 20.7148 89.1182 20.5385C89.4473 20.3622 89.7881 20.1154 90.1407 19.7981V17.7002C88.8714 17.8647 87.9899 18.1056 87.4962 18.423C87.0026 18.7403 86.7558 19.134 86.7558 19.6042C86.7558 20.0273 86.8851 20.3329 87.1436 20.5209C87.4022 20.7089 87.7196 20.803 88.0956 20.803ZM87.5315 22.2486C86.7793 22.2486 86.1681 22.0194 85.698 21.561C85.2279 21.1027 84.9928 20.4974 84.9928 19.7452C84.9928 18.8167 85.3983 18.0998 86.2093 17.5944C87.032 17.0772 88.3425 16.7247 90.1407 16.5366C90.1289 16.043 90.0055 15.614 89.7705 15.2496C89.5472 14.8735 89.124 14.6855 88.5011 14.6855C88.0428 14.6855 87.602 14.7736 87.1789 14.9499C86.7676 15.1145 86.3797 15.3143 86.0154 15.5493L85.3278 14.3329C85.7744 14.0391 86.2974 13.7805 86.8968 13.5572C87.4962 13.3221 88.1368 13.2046 88.8185 13.2046C89.8997 13.2046 90.6931 13.5278 91.1985 14.1742C91.7156 14.8089 91.9742 15.708 91.9742 16.8716V22.037H90.458L90.317 21.0498H90.2641C89.8645 21.3789 89.4355 21.6609 88.9771 21.896C88.5305 22.1311 88.0486 22.2486 87.5315 22.2486ZM95.2483 11.8119C94.9075 11.8119 94.6254 11.712 94.4021 11.5122C94.1788 11.3006 94.0671 11.042 94.0671 10.7365C94.0671 10.4074 94.1788 10.1488 94.4021 9.96075C94.6254 9.76095 94.9075 9.66105 95.2483 9.66105C95.5774 9.66105 95.8536 9.76095 96.0769 9.96075C96.3002 10.1488 96.4119 10.4074 96.4119 10.7365C96.4119 11.042 96.3002 11.3006 96.0769 11.5122C95.8536 11.712 95.5774 11.8119 95.2483 11.8119ZM94.314 22.037V13.4162H96.1474V22.037H94.314ZM101.011 22.2486C100.411 22.2486 99.8237 22.1369 99.2478 21.9136C98.6719 21.6786 98.1782 21.3906 97.7669 21.0498L98.6307 19.8686C99.0068 20.1624 99.3888 20.4034 99.7767 20.5914C100.165 20.7677 100.593 20.8559 101.064 20.8559C101.569 20.8559 101.945 20.7501 102.192 20.5385C102.439 20.3152 102.562 20.039 102.562 19.7099C102.562 19.3221 102.362 19.0283 101.963 18.8285C101.563 18.6169 101.128 18.423 100.658 18.2467C100.07 18.0234 99.5122 17.7295 98.9833 17.3652C98.4544 17.0009 98.19 16.4543 98.19 15.7256C98.19 14.9969 98.4603 14.3975 99.001 13.9274C99.5533 13.4455 100.311 13.2046 101.275 13.2046C101.851 13.2046 102.374 13.3045 102.844 13.5043C103.326 13.7041 103.737 13.9392 104.078 14.2095L103.232 15.3378C102.926 15.1145 102.615 14.9382 102.298 14.8089C101.992 14.6679 101.663 14.5973 101.31 14.5973C100.829 14.5973 100.476 14.6972 100.253 14.897C100.029 15.0968 99.9177 15.3437 99.9177 15.6375C99.9177 16.0018 100.106 16.278 100.482 16.4661C100.858 16.6424 101.287 16.8187 101.769 16.995C102.368 17.23 102.938 17.5239 103.479 17.8765C104.02 18.2173 104.29 18.7932 104.29 19.6042C104.29 20.3329 104.008 20.9558 103.444 21.4729C102.891 21.99 102.08 22.2486 101.011 22.2486ZM109.61 22.2486C108.434 22.2486 107.441 21.8549 106.63 21.0674C105.819 20.2682 105.414 19.1575 105.414 17.7354C105.414 16.7952 105.602 15.9901 105.978 15.3202C106.354 14.6385 106.842 14.1155 107.441 13.7511C108.041 13.3868 108.675 13.2046 109.345 13.2046C110.497 13.2046 111.373 13.5807 111.972 14.3329C112.571 15.0733 112.871 16.0547 112.871 17.277C112.871 17.6649 112.842 17.9764 112.783 18.2114H107.194C107.277 19.0224 107.553 19.6629 108.023 20.133C108.505 20.5914 109.116 20.8206 109.857 20.8206C110.233 20.8206 110.585 20.7618 110.914 20.6443C111.255 20.5268 111.584 20.3681 111.902 20.1683L112.536 21.3319C112.137 21.5904 111.69 21.8079 111.196 21.9842C110.703 22.1605 110.174 22.2486 109.61 22.2486ZM107.177 16.9421H111.285C111.285 15.4024 110.65 14.6326 109.381 14.6326C108.84 14.6326 108.358 14.8324 107.935 15.232C107.512 15.6316 107.259 16.2016 107.177 16.9421ZM114.686 22.037V13.4162H116.202L116.343 14.9499H116.396C117.019 13.7864 117.836 13.2046 118.846 13.2046C119.234 13.2046 119.552 13.2634 119.798 13.3809L119.481 14.9676C119.328 14.9206 119.187 14.8853 119.058 14.8618C118.94 14.8383 118.788 14.8265 118.6 14.8265C118.259 14.8265 117.894 14.9676 117.507 15.2496C117.119 15.52 116.79 15.996 116.519 16.6776V22.037H114.686Z" fill="#E8FAF3"/>
</svg>
