<svg width="19" height="19" viewBox="0 0 19 19" fill="none" xmlns="http://www.w3.org/2000/svg">
<path d="M16.1179 14.2497C15.9909 13.6279 15.505 13.1419 14.8832 13.015V9.18333C14.8832 8.3089 14.1743 7.6 13.2999 7.6C12.4254 7.6 11.7165 8.3089 11.7165 9.18333V16.15C11.7165 17.3742 10.7241 18.3667 9.49985 18.3667C8.27562 18.3667 7.28319 17.3742 7.28319 16.15V12.6667H7.59985C7.77473 12.6667 7.91652 12.5249 7.91652 12.35V11.2898C9.70577 11.0426 11.0491 9.53008 11.0832 7.72413V4.75C11.0832 4.57512 10.9414 4.43333 10.7665 4.43333H10.4499V0.907567C10.4751 0.434665 10.1147 0.0297271 9.64204 0H9.18319V0.633333H9.64204C9.72437 0.633333 9.81652 0.7505 9.81652 0.907567V4.43333H9.49985C9.32497 4.43333 9.18319 4.57512 9.18319 4.75V7.79C9.1795 8.73648 8.41048 9.50139 7.464 9.5H6.46904C5.52256 9.50139 4.75353 8.73648 4.74985 7.79V4.75C4.74985 4.57512 4.60807 4.43333 4.43319 4.43333H4.11652V0.907567C4.11652 0.74575 4.21564 0.633333 4.30652 0.633333H4.74985V0H4.30652C3.82918 0.0245812 3.4613 0.430073 3.48319 0.907567V4.43333H3.16652C2.99164 4.43333 2.84985 4.57512 2.84985 4.75V7.72413C2.88397 9.53008 4.22727 11.0426 6.01652 11.2898V12.35C6.01652 12.5249 6.15831 12.6667 6.33319 12.6667H6.64985V16.15C6.64985 17.724 7.92586 19 9.49985 19C11.0739 19 12.3499 17.724 12.3499 16.15V9.18333C12.3499 8.65866 12.7752 8.23333 13.2999 8.23333C13.8245 8.23333 14.2499 8.65866 14.2499 9.18333V13.015C13.3931 13.1899 12.8403 14.0262 13.0152 14.883C13.19 15.7398 14.0264 16.2926 14.8832 16.1177C15.74 15.9428 16.2927 15.1065 16.1179 14.2497ZM6.36264 10.696C4.77713 10.6025 3.52661 9.31178 3.48319 7.72413V5.06667H4.11652V7.79C4.12036 9.0862 5.17284 10.1346 6.46904 10.1333H7.464C8.7602 10.1346 9.81268 9.0862 9.81652 7.79V5.06667H10.4499V7.72413C10.4064 9.31178 9.15591 10.6025 7.5704 10.696C7.40712 10.7113 7.28247 10.8487 7.28319 11.0127V12.0333H6.64985V11.0114C6.64989 10.8479 6.52544 10.7113 6.36264 10.696ZM14.5665 15.5167C14.0418 15.5167 13.6165 15.0913 13.6165 14.5667C13.6165 14.042 14.0418 13.6167 14.5665 13.6167C15.0912 13.6167 15.5165 14.042 15.5165 14.5667C15.5165 15.0913 15.0912 15.5167 14.5665 15.5167Z" fill="white"/>
<path d="M14.5665 15.2C14.9163 15.2 15.1998 14.9165 15.1998 14.5667C15.1998 14.2169 14.9163 13.9333 14.5665 13.9333C14.2167 13.9333 13.9332 14.2169 13.9332 14.5667C13.9332 14.9165 14.2167 15.2 14.5665 15.2Z" fill="white"/>
</svg>
