<svg width="48" height="48" viewBox="0 0 48 48" fill="none" xmlns="http://www.w3.org/2000/svg">
<path d="M42 14C42.0189 13.8606 42.0189 13.7194 42 13.58C41.9826 13.4626 41.949 13.3481 41.9 13.24C41.8472 13.1423 41.787 13.0487 41.72 12.96C41.6439 12.8335 41.5496 12.7189 41.44 12.62L41.2 12.48C41.0846 12.3939 40.9563 12.3264 40.82 12.28H40.42C40.2981 12.162 40.1558 12.0671 40 12H30C29.4696 12 28.9609 12.2107 28.5858 12.5858C28.2107 12.9609 28 13.4696 28 14C28 14.5304 28.2107 15.0391 28.5858 15.4142C28.9609 15.7893 29.4696 16 30 16H35.66L27.66 25.42L19.02 20.28C18.6108 20.0366 18.1281 19.9472 17.6589 20.0278C17.1896 20.1085 16.7645 20.3539 16.46 20.72L6.46001 32.72C6.29161 32.9221 6.16473 33.1554 6.08664 33.4066C6.00855 33.6578 5.98079 33.922 6.00494 34.1839C6.02909 34.4459 6.10468 34.7005 6.22739 34.9332C6.35009 35.1659 6.51749 35.3721 6.72001 35.54C7.07984 35.8382 7.53271 36.0009 8.00001 36C8.29383 36.0005 8.58415 35.9362 8.85032 35.8118C9.11649 35.6873 9.35197 35.5058 9.54001 35.28L18.44 24.6L26.98 29.72C27.3851 29.9603 27.8619 30.0499 28.3266 29.973C28.7912 29.8962 29.2138 29.6579 29.52 29.3L38 19.4V24C38 24.5304 38.2107 25.0391 38.5858 25.4142C38.9609 25.7893 39.4696 26 40 26C40.5304 26 41.0392 25.7893 41.4142 25.4142C41.7893 25.0391 42 24.5304 42 24V14Z" fill="#FF6631"/>
</svg>
