<svg width="24" height="24" viewBox="0 0 24 24" fill="none" xmlns="http://www.w3.org/2000/svg">
<path d="M8.08 19.9998C9.55869 20.0493 11.0323 19.8018 12.4137 19.2721C13.7952 18.7424 15.0564 17.9411 16.1229 16.9156C17.1894 15.8901 18.0395 14.6613 18.623 13.3017C19.2064 11.9421 19.5115 10.4793 19.52 8.9998C20.1976 8.16121 20.7008 7.19563 21 6.1598C21.0223 6.07796 21.0205 5.99141 20.9948 5.91057C20.9691 5.82974 20.9205 5.75806 20.855 5.70417C20.7895 5.65027 20.7098 5.61647 20.6255 5.60683C20.5413 5.59718 20.456 5.6121 20.38 5.6498C20.0255 5.82045 19.6263 5.87558 19.2388 5.80741C18.8513 5.73923 18.495 5.5512 18.22 5.2698C17.8689 4.88538 17.4443 4.57533 16.9712 4.35803C16.4982 4.14072 15.9863 4.02059 15.4659 4.00473C14.9456 3.98888 14.4274 4.07763 13.9419 4.26574C13.4565 4.45384 13.0138 4.73746 12.64 5.0998C12.1282 5.59546 11.7533 6.21509 11.5518 6.89847C11.3503 7.58186 11.329 8.30575 11.49 8.9998C8.13999 9.1998 5.84 7.6098 4 5.4298C3.94472 5.3672 3.87241 5.32205 3.7919 5.29987C3.71139 5.27769 3.62616 5.27943 3.54662 5.30488C3.46708 5.33033 3.39668 5.37839 3.344 5.4432C3.29133 5.508 3.25866 5.58674 3.25 5.6698C2.89947 7.61422 3.15232 9.61935 3.97461 11.4159C4.7969 13.2124 6.14924 14.7143 7.85 15.7198C6.70963 17.0276 5.1082 17.8445 3.38 17.9998C3.28741 18.0152 3.20194 18.0591 3.13555 18.1254C3.06916 18.1917 3.02517 18.2772 3.00974 18.3698C2.99431 18.4623 3.00821 18.5574 3.0495 18.6417C3.09079 18.726 3.15739 18.7952 3.24 18.8398C4.74352 19.5912 6.39923 19.988 8.08 19.9998Z" fill="#1ECA8C"/>
</svg>
