<svg width="48" height="48" viewBox="0 0 48 48" fill="none" xmlns="http://www.w3.org/2000/svg">
<path d="M21.751 8.32763C21.22 7.79663 20.5119 7.50412 19.7571 7.50412C19.0022 7.50412 18.2941 7.79663 17.7631 8.32753C16.8334 9.25725 16.69 10.6797 17.3325 11.7618C15.1488 19.8592 14.1293 20.7706 9.96338 24.4908C8.47922 25.8162 6.63216 27.4656 4.21631 29.8814C3.70688 30.3908 3.42638 31.0695 3.42638 31.7923C3.42638 32.5151 3.70697 33.1938 4.21631 33.7032L10.8708 40.3576C11.3802 40.8671 12.0588 41.1476 12.7816 41.1476C13.2506 41.1476 13.7008 41.0288 14.0984 40.8067L20.9204 47.6287C21.1617 47.87 21.4913 48.0001 21.8482 48C21.9221 48 21.9972 47.9944 22.073 47.983C22.437 47.9286 22.7913 47.7446 23.0706 47.4654L25.4452 45.0908C26.0937 44.4422 26.1655 43.4977 25.6084 42.9406L21.9368 39.269C23.0229 37.3225 22.7995 34.9161 21.3567 33.1975C24.1396 30.174 25.7191 29.1543 32.8122 27.2414C33.2543 27.504 33.7533 27.6354 34.2523 27.6354C34.9745 27.6354 35.6965 27.3605 36.2463 26.8108C37.3458 25.7112 37.3458 23.9223 36.2463 22.8228L21.751 8.32763ZM11.9314 39.2969L5.27691 32.6424C5.05078 32.4164 4.92628 32.1144 4.92628 31.7923C4.92628 31.4702 5.05078 31.1682 5.27691 30.9422C6.94434 29.2747 8.33925 27.9755 9.53044 26.8957L17.6783 35.0436C16.5984 36.2347 15.2992 37.6297 13.6317 39.2971C13.4056 39.5231 13.1037 39.6477 12.7816 39.6477C12.4594 39.6476 12.1575 39.523 11.9314 39.2969ZM24.3844 44.03L22.0097 46.4047C21.9681 46.4463 21.9278 46.4707 21.8975 46.4843L15.2297 39.8166C16.1814 38.8529 17.0084 37.9836 17.7409 37.1946L24.4641 43.9177C24.4505 43.9481 24.4261 43.9883 24.3844 44.03ZM20.8167 38.1489L18.7559 36.0882C19.2374 35.5575 19.6758 35.0666 20.0831 34.6104C20.1695 34.5137 20.2538 34.4193 20.3374 34.3259C21.1713 35.4351 21.3454 36.888 20.8167 38.1489ZM18.9643 33.6113C18.8723 33.7145 18.7781 33.8198 18.6827 33.9265L10.6473 25.8911C10.754 25.7958 10.8593 25.7017 10.9624 25.6096C15.1267 21.891 16.3858 20.7664 18.5268 13.0793L31.4945 26.047C23.8076 28.188 22.6829 29.4472 18.9643 33.6113ZM35.1856 25.75C34.671 26.2647 33.8335 26.2647 33.3189 25.75L18.8237 11.2549C18.3091 10.7403 18.3091 9.90291 18.8237 9.38831C19.0714 9.14053 19.4029 9.00412 19.7571 9.00412C20.1113 9.00412 20.4427 9.14053 20.6903 9.38831L35.1856 23.8835C35.7002 24.3981 35.7002 25.2354 35.1856 25.75ZM33.0708 11.503C32.7779 11.2101 32.7779 10.7353 33.0708 10.4423L37.1868 6.32634C37.4797 6.03356 37.9545 6.03356 38.2474 6.32634C38.5402 6.61931 38.5402 7.09406 38.2474 7.38703L34.1314 11.503C33.9849 11.6495 33.793 11.7227 33.601 11.7227C33.409 11.7227 33.2172 11.6495 33.0708 11.503ZM44.5738 21.5994C44.5738 22.0136 44.238 22.3494 43.8238 22.3494H38.0029C37.5887 22.3494 37.2529 22.0136 37.2529 21.5994C37.2529 21.1852 37.5887 20.8494 38.0029 20.8494H43.8238C44.238 20.8494 44.5738 21.1852 44.5738 21.5994ZM22.2245 6.57094V0.75C22.2245 0.335812 22.5603 0 22.9745 0C23.3887 0 23.7245 0.335812 23.7245 0.75V6.57094C23.7245 6.98512 23.3887 7.32094 22.9745 7.32094C22.5603 7.32094 22.2245 6.98512 22.2245 6.57094Z" fill="#801DFF"/>
</svg>
