<svg width="38" height="38" viewBox="0 0 38 38" fill="none" xmlns="http://www.w3.org/2000/svg">
<path d="M35.0948 9.59192C34.4852 9.59192 33.9022 9.81898 33.4532 10.2313C33.0042 10.6436 32.7283 11.2052 32.6764 11.8126L31.9695 20.0906C31.8618 20.0763 31.7525 20.0689 31.642 20.0689C30.9852 20.0689 30.3677 20.3247 29.9032 20.7891L27.7635 22.9289C27.2637 23.4287 26.5992 23.7039 25.8924 23.7039H25.8751C25.2931 23.7039 24.7253 23.8168 24.1875 24.0396C23.6497 24.2624 23.1684 24.584 22.7568 24.9956L19.4454 28.307C19.278 28.4744 19.1293 28.6563 19 28.8511C18.8708 28.6563 18.7221 28.4744 18.5547 28.307L15.2432 24.9956C14.8316 24.584 14.3503 24.2624 13.8125 24.0396C13.2748 23.8169 12.707 23.7039 12.1249 23.7039H12.1076C11.4008 23.7039 10.7363 23.4287 10.2366 22.9289L8.0968 20.7891C7.63235 20.3247 7.01484 20.0689 6.35801 20.0689C6.24754 20.0689 6.13821 20.0763 6.03051 20.0906L5.32358 11.8126C5.27171 11.2052 4.99586 10.6436 4.54685 10.2313C4.09783 9.81898 3.51481 9.59192 2.90521 9.59192C1.56685 9.59192 0.478027 10.6807 0.478027 12.0191V26.3081C0.478027 26.7738 0.568384 27.228 0.74659 27.6583C0.924782 28.0885 1.18209 28.4735 1.51135 28.8028L8.36559 35.6571C8.5877 35.8792 8.71003 36.1745 8.71003 36.4886V37.2279C8.71003 37.5527 8.97328 37.8159 9.29803 37.8159C9.62277 37.8159 9.88603 37.5527 9.88603 37.2279V36.4886C9.88603 35.8603 9.64136 35.2697 9.19713 34.8255L2.3429 27.9713C1.89866 27.527 1.65401 26.9364 1.65401 26.3081V12.0191C1.65401 11.3292 2.21529 10.7679 2.90521 10.7679C3.56018 10.7679 4.09612 11.26 4.15185 11.9126L4.88988 20.5548C4.79498 20.6257 4.70452 20.7039 4.61924 20.7891C3.66049 21.7479 3.66049 23.3079 4.61924 24.2667L9.76424 29.4117C9.99387 29.6413 10.3662 29.6413 10.5958 29.4117C10.8254 29.1821 10.8254 28.8098 10.5958 28.5801L5.4508 23.4351C4.95057 22.9349 4.95057 22.1209 5.4508 21.6207C5.69313 21.3784 6.01531 21.2449 6.35801 21.2449C6.70072 21.2449 7.0229 21.3784 7.26523 21.6207L9.40502 23.7605C9.76172 24.1172 10.1789 24.3959 10.645 24.589C11.111 24.782 11.6031 24.8799 12.1076 24.8799H12.1249C12.9887 24.8799 13.8008 25.2163 14.4117 25.8271L17.7231 29.1386C18.1674 29.5828 18.412 30.1735 18.412 30.8017V37.2279C18.412 37.5527 18.6753 37.8159 19 37.8159C19.3248 37.8159 19.588 37.5527 19.588 37.2279V30.8017C19.588 30.1735 19.8327 29.5828 20.2769 29.1386L23.5883 25.8271C24.1992 25.2163 25.0113 24.8799 25.8751 24.8799H25.8924C26.3969 24.8799 26.889 24.782 27.3551 24.589C27.8211 24.396 28.2383 24.1172 28.595 23.7605L30.7348 21.6207C30.9771 21.3784 31.2993 21.2449 31.642 21.2449C31.9847 21.2449 32.3069 21.3784 32.5492 21.6207C33.0495 22.1209 33.0495 22.9349 32.5492 23.4351L27.4042 28.5801C27.1746 28.8098 27.1746 29.1821 27.4042 29.4117C27.6339 29.6413 28.0062 29.6413 28.2358 29.4117L33.3808 24.2667C34.3395 23.3079 34.3395 21.7479 33.3808 20.7891C33.2955 20.7039 33.205 20.6257 33.1101 20.5548L33.8482 11.9126C33.9039 11.26 34.4398 10.7679 35.0948 10.7679C35.7847 10.7679 36.346 11.3292 36.346 12.0191V26.3081C36.346 26.9364 36.1014 27.527 35.6571 27.9713L28.8029 34.8255C28.3587 35.2697 28.114 35.8603 28.114 36.4886V37.2279C28.114 37.5527 28.3773 37.8159 28.702 37.8159C29.0267 37.8159 29.29 37.5527 29.29 37.2279V36.4886C29.29 36.1744 29.4123 35.8791 29.6344 35.657L36.4887 28.8028C36.818 28.4735 37.0752 28.0885 37.2535 27.6582C37.4317 27.228 37.522 26.7738 37.522 26.3081V12.0191C37.522 10.6807 36.4332 9.59192 35.0948 9.59192Z" fill="#1ECA8C"/>
<path d="M21.6461 14.8839C20.9699 14.8839 20.3129 15.0764 19.7461 15.4406C19.4674 15.6197 19.2166 15.836 19 16.0824C18.7835 15.836 18.5327 15.6197 18.254 15.4406C17.6872 15.0764 17.0302 14.8839 16.354 14.8839C15.4117 14.8839 14.5257 15.2509 13.8594 15.9172C13.193 16.5836 12.826 17.4695 12.826 18.4119C12.826 19.3331 13.1521 20.2977 13.795 21.2791C14.2864 22.0291 14.966 22.7945 15.815 23.5541C17.2402 24.8293 18.6463 25.6485 18.7054 25.6828C18.7965 25.7355 18.8983 25.7619 19 25.7619C19.1018 25.7619 19.2035 25.7355 19.2947 25.6828C19.3538 25.6485 20.7599 24.8293 22.1851 23.5541C23.0341 22.7945 23.7137 22.0291 24.2051 21.2791C24.848 20.2977 25.1741 19.3331 25.1741 18.4119C25.1741 17.4695 24.8071 16.5836 24.1407 15.9172C23.4744 15.2509 22.5884 14.8839 21.6461 14.8839ZM21.4156 22.6646C20.4514 23.5295 19.474 24.1841 18.9999 24.4842C18.5288 24.1863 17.5613 23.5386 16.5991 22.6777C15.4143 21.6176 14.002 20.0171 14.002 18.4119C14.002 17.115 15.0571 16.0599 16.354 16.0599C17.2626 16.0599 18.0736 16.5705 18.4706 17.3925C18.5687 17.5957 18.7744 17.7248 19 17.7248C19.2257 17.7248 19.4314 17.5957 19.5295 17.3925C19.9265 16.5706 20.7375 16.0599 21.6461 16.0599C22.943 16.0599 23.9981 17.115 23.9981 18.4119C23.9981 20.0122 22.5937 21.6078 21.4156 22.6646Z" fill="#1ECA8C"/>
<path d="M11.2106 19.1096C11.353 19.1096 11.4957 19.0582 11.6087 18.9542C11.8476 18.7343 11.8631 18.3623 11.6431 18.1234C10.0744 16.4189 9.15536 14.2435 9.02114 11.9439H12.5409C12.5624 12.6706 12.6236 13.3904 12.724 14.0908C12.766 14.384 13.0175 14.5955 13.3053 14.5955C13.333 14.5955 13.3612 14.5935 13.3894 14.5895C13.7109 14.5434 13.9341 14.2454 13.8881 13.924C13.7955 13.2784 13.7385 12.6146 13.7174 11.9439H18.412V13.7079C18.412 14.0327 18.6753 14.2959 19 14.2959C19.3247 14.2959 19.588 14.0327 19.588 13.7079V11.9439H24.2827C24.2647 12.5156 24.2205 13.0827 24.1506 13.6364C24.11 13.9586 24.3382 14.2527 24.6604 14.2934C24.9825 14.3341 25.2767 14.1059 25.3174 13.7837C25.3934 13.1815 25.4408 12.5649 25.4592 11.9439H28.9788C28.8453 14.2293 27.9358 16.3942 26.3839 18.0939C26.1649 18.3337 26.1818 18.7056 26.4216 18.9246C26.6614 19.1436 27.0333 19.1266 27.2523 18.8868C29.1351 16.8248 30.172 14.1503 30.172 11.356C30.172 9.84801 29.8765 8.38485 29.2938 7.00713C28.7311 5.67671 27.9256 4.48199 26.8998 3.45617C25.874 2.43034 24.6793 1.62487 23.3488 1.06215C21.9711 0.479416 20.508 0.18396 19 0.18396C17.492 0.18396 16.0289 0.479416 14.6512 1.06215C13.3208 1.62487 12.126 2.43034 11.1002 3.45617C10.0744 4.48199 9.26891 5.67671 8.7062 7.00713C8.12346 8.38485 7.828 9.84801 7.828 11.356C7.828 14.1668 8.87561 16.853 10.7778 18.9198C10.8938 19.0457 11.052 19.1096 11.2106 19.1096ZM13.7172 10.768C13.7951 8.26146 14.3701 5.93257 15.3562 4.1575C16.2116 2.61775 17.2796 1.6686 18.412 1.42352V10.768H13.7172ZM19.588 1.42352C20.7204 1.66862 21.7884 2.61776 22.6438 4.15751C23.6299 5.93258 24.2049 8.26147 24.2828 10.768H19.588V1.42352ZM28.9787 10.768H25.4593C25.3797 8.06242 24.7522 5.53105 23.6718 3.58638C23.3431 2.99468 22.9814 2.47349 22.5904 2.02681C26.1597 3.40516 28.746 6.77575 28.9787 10.768ZM15.4096 2.02681C15.0186 2.47349 14.6569 2.9947 14.3282 3.58638C13.2479 5.53105 12.6203 8.06242 12.5407 10.768H9.02129C9.254 6.77575 11.8403 3.40516 15.4096 2.02681Z" fill="#1ECA8C"/>
</svg>
