<svg width="56" height="56" viewBox="0 0 56 56" fill="none" xmlns="http://www.w3.org/2000/svg">
<path d="M20.75 41.2727C20.75 41.4445 20.8182 41.6093 20.9397 41.7307C21.0612 41.8522 21.2259 41.9205 21.3977 41.9205H34.3523C34.5241 41.9205 34.6888 41.8522 34.8103 41.7307C34.9318 41.6093 35 41.4445 35 41.2727C35 41.1009 34.9318 40.9362 34.8103 40.8147C34.6888 40.6932 34.5241 40.625 34.3523 40.625H21.3977C21.2259 40.625 21.0612 40.6932 20.9397 40.8147C20.8182 40.9362 20.75 41.1009 20.75 41.2727Z" fill="#676968"/>
<path d="M26.2132 25.963C25.9785 26.1983 25.8467 26.517 25.8467 26.8493C25.8467 27.1816 25.9785 27.5003 26.2132 27.7355C26.3757 27.8992 26.5838 28.0102 26.8103 28.0538C27.0368 28.0974 27.2712 28.0717 27.4829 27.9801L28.2531 27.6499C28.3272 27.6178 28.4093 27.6088 28.4886 27.624C28.5679 27.6393 28.6408 27.6781 28.6977 27.7354C28.7445 27.7822 28.7816 27.8377 28.8069 27.8988C28.8322 27.9599 28.8452 28.0254 28.8452 28.0915C28.8452 28.1577 28.8322 28.2232 28.8069 28.2843C28.7816 28.3454 28.7445 28.4009 28.6977 28.4477C28.6509 28.4945 28.5954 28.5316 28.5343 28.5569C28.4732 28.5822 28.4077 28.5952 28.3416 28.5952C28.2754 28.5952 28.2099 28.5822 28.1488 28.5569C28.0877 28.5316 28.0322 28.4945 27.9854 28.4477C27.9148 28.3789 27.8199 28.3406 27.7213 28.3412C27.6227 28.3419 27.5284 28.3813 27.4586 28.451C27.3889 28.5207 27.3495 28.6151 27.3488 28.7137C27.3482 28.8123 27.3865 28.9072 27.4553 28.9778C27.5717 29.0942 27.7098 29.1865 27.8619 29.2495C28.0139 29.3125 28.1769 29.3449 28.3414 29.3449C28.506 29.3449 28.669 29.3125 28.821 29.2495C28.9731 29.1865 29.1112 29.0942 29.2276 28.9778C29.344 28.8614 29.4363 28.7233 29.4993 28.5712C29.5622 28.4192 29.5946 28.2562 29.5946 28.0917C29.5946 27.9271 29.5622 27.7641 29.4993 27.6121C29.4363 27.46 29.344 27.3219 29.2276 27.2055C29.0651 27.0419 28.857 26.931 28.6305 26.8874C28.404 26.8437 28.1696 26.8694 27.9579 26.961L27.1877 27.2912C27.1136 27.3234 27.0315 27.3324 26.9522 27.3171C26.8729 27.3018 26.8 27.2629 26.7432 27.2055C26.6962 27.1588 26.6588 27.1033 26.6333 27.0421C26.6077 26.981 26.5945 26.9154 26.5944 26.8491C26.5942 26.7828 26.6072 26.7171 26.6325 26.6558C26.6578 26.5946 26.6949 26.5389 26.7418 26.492C26.7887 26.4451 26.8443 26.408 26.9056 26.3827C26.9669 26.3573 27.0325 26.3444 27.0988 26.3445C27.1651 26.3446 27.2307 26.3578 27.2919 26.3833C27.3531 26.4088 27.4086 26.4462 27.4553 26.4932C27.4901 26.5283 27.5314 26.5561 27.5769 26.5752C27.6225 26.5942 27.6714 26.6041 27.7207 26.6042C27.7701 26.6043 27.819 26.5946 27.8646 26.5758C27.9103 26.5569 27.9517 26.5293 27.9866 26.4944C28.0215 26.4594 28.0492 26.418 28.068 26.3724C28.0869 26.3267 28.0965 26.2778 28.0964 26.2284C28.0963 26.1791 28.0864 26.1302 28.0674 26.0847C28.0483 26.0391 28.0205 25.9978 27.9854 25.963C27.7502 25.7284 27.4316 25.5966 27.0993 25.5966C26.7671 25.5966 26.4484 25.7284 26.2132 25.963Z" fill="#676968"/>
<path d="M40.401 21.2035L44.6492 18.7759H49.9612C50.1704 18.7759 50.371 18.6928 50.519 18.5449C50.6669 18.3969 50.75 18.1963 50.75 17.9871V6.94399C50.75 6.73479 50.6669 6.53415 50.519 6.38623C50.371 6.2383 50.1704 6.15519 49.9612 6.15519H44.6492L40.401 3.7276C39.5664 3.25123 38.622 3.00047 37.6609 3.00002H27.3335C26.6082 2.99803 25.8897 3.13993 25.2196 3.41749C24.5495 3.69505 23.9411 4.10277 23.4296 4.61705L17.7162 10.3303C17.1499 10.8966 16.8318 11.6647 16.8318 12.4656C16.8318 13.2665 17.1499 14.0345 17.7163 14.6008C18.2826 15.1671 19.0507 15.4853 19.8515 15.4853C20.6524 15.4853 21.4205 15.1671 21.9868 14.6008L23.1112 13.4765C23.2245 13.6754 23.3629 13.8591 23.5228 14.0231C24.0408 14.54 24.7428 14.8303 25.4747 14.8303C26.2066 14.8303 26.9086 14.54 27.4266 14.0231L27.4489 14.0009C27.4556 14.0077 27.46 14.0167 27.4667 14.0231C27.9848 14.54 28.6868 14.8303 29.4187 14.8303C30.1505 14.8303 30.8525 14.54 31.3706 14.0231L34.3803 11.0138L35.0535 11.8555C35.1752 12.0069 35.2366 12.1979 35.2259 12.3919C35.2153 12.5859 35.1333 12.769 34.9957 12.9062L31.4923 16.4095H26.6918C25.9599 16.4104 25.2582 16.7015 24.7406 17.2191C24.2231 17.7366 23.9319 18.4383 23.931 19.1703C23.9342 19.6192 24.0482 20.0604 24.263 20.4547C23.5375 20.8225 22.8742 21.3018 22.2972 21.8752C21.0719 23.1047 20.286 24.7038 20.0611 26.425C19.8363 28.1462 20.1851 29.8936 21.0534 31.3966H12.0991C11.9601 31.3966 11.8235 31.4334 11.7032 31.5032C11.583 31.573 11.4833 31.6733 11.4143 31.794L5.10396 42.8372C5.09395 42.8547 5.08961 42.8749 5.08101 42.8932C5.07099 42.9143 5.06287 42.9352 5.05466 42.9574C5.02055 43.0438 5.00204 43.1356 5 43.2285V52.694C5 52.9032 5.0831 53.1038 5.23103 53.2518C5.37896 53.3997 5.57959 53.4828 5.78879 53.4828H49.9612C50.1704 53.4828 50.371 53.3997 50.519 53.2518C50.6669 53.1038 50.75 52.9032 50.75 52.694V43.2285C50.748 43.1357 50.7295 43.0439 50.6953 42.9576C50.6874 42.9353 50.679 42.9143 50.6689 42.8929C50.6602 42.8747 50.6561 42.8547 50.646 42.8372L44.3357 31.794C44.2667 31.6733 44.167 31.573 44.0468 31.5032C43.9265 31.4334 43.7899 31.3966 43.6509 31.3966H34.6966C35.5579 29.9048 35.9075 28.1722 35.6921 26.4631C35.4766 24.754 34.7079 23.1624 33.5033 21.9311H37.6609C38.622 21.9306 39.5664 21.6799 40.401 21.2035ZM24.6382 12.9077C24.4659 12.7353 24.353 12.5127 24.3157 12.2719L27.2773 9.31037H29.9086L26.3117 12.9073C26.0897 13.129 25.7888 13.2537 25.475 13.2537C25.1612 13.2538 24.8603 13.1293 24.6382 12.9077ZM30.2553 12.9077C30.0333 13.1293 29.7324 13.2537 29.4187 13.2537C29.105 13.2537 28.8042 13.1293 28.5822 12.9077C28.5754 12.9009 28.5732 12.8901 28.5664 12.8831L32.1394 9.31037H33.0179L33.3892 9.77449L30.2553 12.9077ZM26.6918 17.9871H31.819C31.9225 17.9871 32.0251 17.9667 32.1208 17.927C32.2165 17.8874 32.3034 17.8293 32.3766 17.756L36.1111 14.0219C36.5235 13.6104 36.7694 13.0612 36.8017 12.4795C36.834 11.8979 36.6503 11.3248 36.286 10.8702L34.0128 8.02897C33.9388 7.9366 33.845 7.86203 33.7384 7.81077C33.6317 7.7595 33.5149 7.73285 33.3966 7.73278H26.9506C26.847 7.73277 26.7445 7.75318 26.6488 7.79284C26.5531 7.83249 26.4661 7.89062 26.3929 7.9639L20.8714 13.4854C20.6009 13.7559 20.234 13.9079 19.8515 13.9079C19.469 13.9079 19.1021 13.7559 18.8316 13.4854C18.5611 13.2149 18.4092 12.848 18.4092 12.4655C18.4092 12.083 18.5611 11.7161 18.8316 11.4456L24.545 5.73272C25.2862 4.99561 26.2882 4.58054 27.3335 4.57761H37.6609C38.3474 4.5781 39.022 4.75716 39.6183 5.09719L44.0483 7.62921C44.1676 7.69716 44.3024 7.73286 44.4397 7.73278H49.1724V17.1983H44.4397C44.3024 17.1983 44.1675 17.2342 44.0483 17.3023L39.6183 19.8343C39.0219 20.1742 38.3474 20.3531 37.6609 20.3535H26.6918C26.378 20.3535 26.0771 20.2288 25.8552 20.0069C25.6333 19.785 25.5086 19.4841 25.5086 19.1703C25.5086 18.8565 25.6333 18.5555 25.8552 18.3336C26.0771 18.1117 26.378 17.9871 26.6918 17.9871ZM6.57759 51.9052V44.0173H49.1724V51.9052H6.57759ZM43.1934 32.9742L48.602 42.4397H7.14804L12.5566 32.9742H22.2467C22.2645 32.9922 22.2792 33.012 22.2972 33.03C23.0297 33.7625 23.8993 34.3436 24.8563 34.74C25.8133 35.1365 26.8391 35.3405 27.875 35.3405C28.9109 35.3405 29.9367 35.1365 30.8937 34.74C31.8507 34.3436 32.7203 33.7625 33.4528 33.03C33.4708 33.012 33.4855 32.9922 33.5033 32.9742H43.1934ZM32.3374 22.9906C33.2198 23.8732 33.8208 24.9975 34.0643 26.2216C34.3078 27.4456 34.1828 28.7144 33.7052 29.8674C33.2276 31.0205 32.4189 32.006 31.3812 32.6994C30.3435 33.3928 29.1235 33.7629 27.8755 33.763C26.6274 33.7631 25.4074 33.393 24.3697 32.6997C23.3319 32.0064 22.5231 31.021 22.0454 29.868C21.5677 28.715 21.4426 27.4462 21.686 26.2221C21.9294 24.998 22.5302 23.8736 23.4126 22.991C24.0019 22.4059 24.7022 21.9446 25.4725 21.6343C25.8503 21.8267 26.2678 21.9283 26.6918 21.9311H30.9062C31.431 22.2147 31.9128 22.5715 32.3374 22.9906Z" fill="#676968"/>
</svg>
