<svg width="20" height="20" viewBox="0 0 20 20" fill="none" xmlns="http://www.w3.org/2000/svg">
<path d="M5.48709 8.09723C5.30739 9.47282 5.20032 10.8569 5.16631 12.2438C7.04704 13.0294 8.8478 13.9942 10.5437 15.1249C12.2398 13.9942 14.0408 13.0294 15.9217 12.2438C15.8877 10.8569 15.7806 9.47282 15.6009 8.09723M15.6009 8.09723C16.1726 7.90516 16.7521 7.72746 17.3374 7.56544C15.2054 6.07083 12.9296 4.79272 10.5437 3.75012C8.1578 4.79294 5.88194 6.07127 3.74994 7.56609C4.33353 7.7272 4.91258 7.90431 5.48643 8.09723C7.22988 8.68333 8.92149 9.41364 10.5437 10.2806C12.1657 9.41369 13.8577 8.68338 15.6009 8.09723ZM7.11382 11.2677C7.24377 11.2677 7.3684 11.2161 7.46029 11.1242C7.55218 11.0323 7.6038 10.9077 7.6038 10.7778C7.6038 10.6478 7.55218 10.5232 7.46029 10.4313C7.3684 10.3394 7.24377 10.2878 7.11382 10.2878C6.98387 10.2878 6.85924 10.3394 6.76735 10.4313C6.67546 10.5232 6.62384 10.6478 6.62384 10.7778C6.62384 10.9077 6.67546 11.0323 6.76735 11.1242C6.85924 11.2161 6.98387 11.2677 7.11382 11.2677ZM7.11382 11.2677V8.86683C8.22231 8.17781 9.36727 7.54928 10.5437 6.984M5.96596 14.5297C6.33049 14.1661 6.61955 13.734 6.81654 13.2583C7.01353 12.7826 7.11456 12.2726 7.11382 11.7577V10.7778" stroke="#FCFDFF" stroke-width="0.5" stroke-linecap="round" stroke-linejoin="round"/>
</svg>
