<svg width="56" height="56" viewBox="0 0 56 56" fill="none" xmlns="http://www.w3.org/2000/svg">
<path d="M7 23.0146L11.0029 52.0359H44.0271L48.03 23.0146C44.6109 23.0146 44.6109 25.0161 41.1919 25.0161C37.7729 25.0161 37.7729 23.0146 34.3541 23.0146C30.9349 23.0146 30.9349 25.0161 27.516 25.0161C24.0967 25.0161 24.0967 23.0146 20.6776 23.0146C17.2581 23.0146 17.2581 25.0161 13.8389 25.0161C10.4196 25.0161 10.4194 23.0146 7 23.0146Z" stroke="#1ECA8C" stroke-width="1.5" stroke-miterlimit="10" stroke-linecap="round" stroke-linejoin="round"/>
<path d="M23.3972 23.6252C23.19 22.8497 22.9619 22.063 22.7146 21.2714C19.4953 10.987 14.1063 3.51849 10.6778 4.59129C7.41243 5.61407 7.10426 14.0161 9.86422 23.7002" stroke="#1ECA8C" stroke-width="1.5" stroke-miterlimit="10" stroke-linecap="round" stroke-linejoin="round"/>
<path d="M15.0997 13.6936L12.2346 14.5904" stroke="#1ECA8C" stroke-width="1.5" stroke-miterlimit="10" stroke-linecap="round" stroke-linejoin="round"/>
<path d="M16.5944 18.4689L13.7292 19.3657" stroke="#1ECA8C" stroke-width="1.5" stroke-miterlimit="10" stroke-linecap="round" stroke-linejoin="round"/>
<path d="M27.6441 9.86487L27.2229 11.3059C26.7828 12.8099 25.6617 14.0275 24.1776 14.5853C22.8828 15.0706 21.854 16.0674 21.3235 17.3273" stroke="#1ECA8C" stroke-width="1.5" stroke-miterlimit="10" stroke-linecap="round" stroke-linejoin="round"/>
<path d="M33.4073 11.5514L32.986 12.9925C32.5437 14.5036 32.8379 16.1356 33.7826 17.3957C34.729 18.6598 35.0199 20.2947 34.5791 21.7999L34.2229 23.0157" stroke="#1ECA8C" stroke-width="1.5" stroke-miterlimit="10" stroke-linecap="round" stroke-linejoin="round"/>
<path d="M27.6447 9.86496L33.4074 11.5514C34.4682 11.8618 35.5799 11.2535 35.8904 10.1927C36.2008 9.13172 35.5925 8.02004 34.5316 7.70958L28.7689 6.02323C27.708 5.71277 26.5964 6.32103 26.2859 7.38198C25.9755 8.44283 26.5837 9.5546 27.6447 9.86496Z" stroke="#1ECA8C" stroke-width="1.5" stroke-miterlimit="10" stroke-linecap="round" stroke-linejoin="round"/>
<path d="M45.8603 23.3791C45.9714 22.7416 45.9945 22.1263 45.9384 21.5387C45.6882 18.9168 43.0483 17.2846 40.5344 18.0712C39.4726 18.4019 38.3118 18.1182 37.5243 17.3327C36.3233 16.1357 34.6131 15.8025 33.1641 16.3069" stroke="#1ECA8C" stroke-width="1.5" stroke-miterlimit="10" stroke-linecap="round" stroke-linejoin="round"/>
<path d="M40.0185 13.1276L38.9268 18.12" stroke="#1ECA8C" stroke-width="1.5" stroke-miterlimit="10" stroke-linecap="round" stroke-linejoin="round"/>
<path d="M26.371 7.14801C25.8215 6.44955 24.969 6.00225 24.0123 6.00225C24.0123 4.3439 22.6683 3 21.01 3C19.3519 3 18.0079 4.3439 18.0079 6.00225C17.0282 6.00225 16.1576 6.47157 15.6101 7.19804" stroke="#1ECA8C" stroke-width="1.5" stroke-miterlimit="10" stroke-linecap="round" stroke-linejoin="round"/>
<path d="M44.7177 47.0322H10.3125" stroke="#1ECA8C" stroke-width="1.5" stroke-miterlimit="10" stroke-linecap="round" stroke-linejoin="round"/>
<path d="M27.5771 31.221C27.5771 31.221 29.4735 28.4644 33.1209 28.5308C36.3728 28.5899 38.5619 31.4951 38.5012 34.831C38.4311 38.6924 35.293 43.2055 27.2896 47.0323C19.4306 42.9172 16.4586 38.2929 16.5288 34.4316C16.5895 31.0956 18.8828 28.2719 22.1346 28.331C25.7821 28.3973 27.5771 31.221 27.5771 31.221Z" stroke="#1ECA8C" stroke-width="1.5" stroke-miterlimit="10" stroke-linecap="round" stroke-linejoin="round"/>
</svg>
