<svg width="48" height="48" viewBox="0 0 48 48" fill="none" xmlns="http://www.w3.org/2000/svg">
<path d="M37.8267 10.1418C37.3437 10.1418 36.9526 9.75062 36.9517 9.26762C36.9473 5.84637 34.6356 2.1425 30.909 2.125C30.426 2.12325 30.0357 1.7295 30.0383 1.2465C30.041 0.764375 30.4321 0.375 30.9133 0.375H30.9177C35.718 0.396875 38.6956 5.00637 38.7017 9.265C38.7026 9.74887 38.3106 10.1418 37.8267 10.1418Z" fill="#676968"/>
<path d="M24 26.175C23.7917 26.175 23.5826 26.1015 23.4155 25.951C23.0558 25.6281 23.0261 25.0751 23.349 24.7155C24.8653 23.0259 26.8857 21.5646 28.8396 20.1515C32.8007 17.285 36.5431 14.5777 36.9211 10.0032C36.9412 9.75823 36.9508 9.51235 36.9508 9.26648C36.9508 8.78348 37.342 8.39148 37.8258 8.39148C38.3097 8.39148 38.7008 8.78348 38.7008 9.26648C38.7008 9.56048 38.6895 9.85448 38.6658 10.1476C38.2196 15.5236 33.9723 18.5966 29.8642 21.569C27.899 22.9909 26.0422 24.3349 24.6501 25.8845C24.4786 26.077 24.2397 26.175 24 26.175Z" fill="#676968"/>
<path d="M10.1733 10.1418C9.69035 10.1418 9.29922 9.75062 9.29835 9.26762C9.2931 5.00813 12.2681 0.39775 17.0832 0.375C17.547 0.395125 17.96 0.762625 17.9626 1.2465C17.9643 1.7295 17.5741 2.12325 17.0911 2.125C13.4721 2.14163 11.0448 5.83063 11.0492 9.26587C11.0492 9.74888 10.6581 10.1418 10.1733 10.1418C10.1742 10.1418 10.1742 10.1418 10.1733 10.1418Z" fill="#676968"/>
<path d="M24.0008 26.175C23.7611 26.175 23.5222 26.077 23.3498 25.8854C21.9594 24.341 20.1071 23.0005 18.1462 21.5804C14.0328 18.6036 9.77945 15.5254 9.33495 10.1476C9.31132 9.85448 9.29907 9.55961 9.29907 9.2656C9.29995 8.7826 9.69107 8.39148 10.1741 8.39148H10.1758C10.6588 8.39235 11.0499 8.78435 11.0491 9.26735C11.0491 9.51323 11.0596 9.75823 11.0788 10.0024C11.4577 14.5777 15.2053 17.2902 19.1726 20.162C21.1221 21.5725 23.1363 23.0311 24.6509 24.7137C24.9747 25.0734 24.9458 25.6264 24.5862 25.9492C24.4191 26.1006 24.2091 26.175 24.0008 26.175Z" fill="#676968"/>
<path d="M24 5.33185C23.7891 5.33185 23.5783 5.2566 23.4094 5.1026C23.0533 4.77622 23.0279 4.22322 23.3543 3.86622C25.281 1.75835 28.025 0.486099 30.8793 0.375849C31.3649 0.353099 31.7691 0.732849 31.7875 1.21585C31.8068 1.69972 31.4305 2.1066 30.9475 2.12497C28.557 2.21772 26.2601 3.2826 24.6458 5.04747C24.4734 5.23647 24.2371 5.33185 24 5.33185Z" fill="#676968"/>
<path d="M24.0008 5.33185C23.7637 5.33185 23.5274 5.23648 23.355 5.04748C21.7398 3.2826 19.4429 2.21685 17.0533 2.12498C16.5703 2.1066 16.1949 1.69973 16.2133 1.21673C16.2317 0.734602 16.6289 0.346977 17.1207 0.376727C19.9758 0.486977 22.7172 1.75923 24.6465 3.8671C24.9729 4.22323 24.9484 4.7771 24.5914 5.10348C24.4225 5.2566 24.2108 5.33185 24.0008 5.33185Z" fill="#676968"/>
<path d="M42.123 42.0083C41.6698 42.0083 41.2865 41.6592 41.2515 41.1998C41.15 39.8663 40.1088 38.8111 38.777 38.6903L28.9018 37.797C26.4185 37.573 24.6318 36.4127 22.74 35.1851C20.9288 34.01 19.0318 33.1446 17.035 32.5697C16.5713 32.4358 16.3026 31.9511 16.4365 31.4865C16.5704 31.0218 17.0516 30.7515 17.5189 30.888C19.681 31.5101 21.7346 32.4472 23.6246 33.6731C25.4709 34.871 27.0074 35.8685 29.0584 36.0531L38.9336 36.9465C41.1203 37.1442 42.8283 38.8767 42.9963 41.066C43.033 41.5481 42.6725 41.9681 42.1904 42.0048C42.1685 42.0075 42.1449 42.0083 42.123 42.0083Z" fill="#676968"/>
<path d="M11.7491 32.5741C11.3335 32.5741 10.9651 32.2775 10.889 31.854C10.8033 31.3788 11.12 30.9238 11.596 30.8381L12.7248 30.6351C13.1973 30.5476 13.6549 30.8661 13.7406 31.3421C13.8264 31.8172 13.5096 32.2722 13.0336 32.3579L11.9049 32.561C11.8524 32.5697 11.8008 32.5741 11.7491 32.5741Z" fill="#676968"/>
<path d="M34.3487 32.1305C34.1396 32.1305 33.9296 32.0561 33.7625 31.9047C32.5007 30.7646 30.6466 30.6526 29.2536 31.6309C28.8581 31.91 28.3121 31.8129 28.0347 31.4182C27.7565 31.0227 27.851 30.4776 28.2465 30.1994C30.3106 28.7469 33.0616 28.914 34.935 30.6054C35.2937 30.9291 35.3217 31.4821 34.998 31.8417C34.8256 32.0334 34.5876 32.1305 34.3487 32.1305Z" fill="#676968"/>
<path d="M39.189 32.9267C38.9186 32.9267 38.6535 32.8025 38.4811 32.568C37.642 31.4191 36.0154 31.1531 34.8516 31.9712C34.4579 32.2495 33.9119 32.1541 33.6328 31.7595C33.3536 31.3649 33.449 30.818 33.8445 30.5397C35.7826 29.1765 38.4951 29.6227 39.8943 31.5346C40.1786 31.9249 40.0946 32.4726 39.7035 32.757C39.5495 32.8725 39.3684 32.9267 39.189 32.9267Z" fill="#676968"/>
<path d="M26.8989 37.3752C26.6242 37.3752 26.3529 37.2457 26.1832 37.0042C25.9049 36.6087 25.9994 36.0627 26.3949 35.7845L33.8464 30.5397C34.241 30.2615 34.787 30.3569 35.0653 30.7515C35.3435 31.147 35.249 31.693 34.8535 31.9712L27.402 37.216C27.248 37.3236 27.073 37.3752 26.8989 37.3752Z" fill="#676968"/>
<path d="M31.9897 38.0717C31.715 38.0717 31.4437 37.9422 31.274 37.7007C30.9957 37.3052 31.0902 36.7592 31.4857 36.481L32.5909 35.704C34.5972 34.2952 36.6719 32.8375 38.666 31.35C39.0527 31.0612 39.6014 31.14 39.8901 31.5285C40.1789 31.9152 40.0992 32.4639 39.7116 32.7526C37.6974 34.255 35.6122 35.7197 33.5962 37.1355L32.492 37.9125C32.3389 38.0201 32.1639 38.0717 31.9897 38.0717Z" fill="#676968"/>
<path d="M23.4777 47.6249C21.9307 47.6249 20.3925 47.2837 18.975 46.6108C18.5384 46.4034 18.352 45.8819 18.5594 45.4453C18.7659 45.0087 19.2891 44.8223 19.7249 45.0297C21.6236 45.9301 23.784 46.1182 25.807 45.5582C26.2699 45.4339 26.7555 45.7026 26.8832 46.1681C27.0119 46.6344 26.7389 47.1157 26.2734 47.2443C25.3572 47.4998 24.4166 47.6249 23.4777 47.6249Z" fill="#676968"/>
<path d="M41.354 40.0413C41.0792 40.0413 40.808 39.9118 40.6382 39.6703C40.36 39.2748 40.4545 38.7288 40.85 38.4506C42.7111 37.1398 44.4944 35.6873 46.1516 34.1307C46.5042 33.8017 47.0572 33.8175 47.388 34.1692C47.7196 34.521 47.7012 35.0748 47.3495 35.4065C45.6336 37.0182 43.7856 38.5241 41.8571 39.8812C41.7031 39.9897 41.5281 40.0413 41.354 40.0413Z" fill="#676968"/>
<path d="M46.75 35.6445C46.2661 35.6445 45.875 35.2525 45.875 34.7695C45.875 34.0651 45.3194 33.7588 45.1487 33.6818C44.979 33.604 44.3822 33.3905 43.8529 33.8568C43.4915 34.1753 42.9385 34.1412 42.6182 33.7781C42.2997 33.415 42.3347 32.862 42.6979 32.5426C43.572 31.7726 44.7882 31.5985 45.8706 32.0867C46.9521 32.5767 47.625 33.604 47.625 34.7695C47.625 35.2525 47.2339 35.6445 46.75 35.6445Z" fill="#676968"/>
<path d="M37.3779 38.5599C37.1032 38.5599 36.8319 38.4304 36.6622 38.1889C36.3839 37.7934 36.4784 37.2474 36.8739 36.9692C38.8287 35.5928 40.8517 34.1692 42.6962 32.5434C43.0593 32.2241 43.6123 32.2582 43.9308 32.6213C44.2502 32.9844 44.2152 33.5366 43.8529 33.8568C41.9367 35.5456 39.8743 36.9972 37.8802 38.4007C37.727 38.5083 37.552 38.5599 37.3779 38.5599Z" fill="#676968"/>
<path d="M43.2745 34.0748C42.9192 34.0748 42.585 33.856 42.4537 33.5043C42.2612 32.9854 41.8334 32.5986 41.2786 32.4438C40.7291 32.2898 40.1647 32.3965 39.7299 32.7386C39.3501 33.0405 38.7997 32.974 38.5014 32.5951C38.2012 32.2163 38.2651 31.6659 38.6449 31.3666C39.5216 30.6719 40.6512 30.4523 41.7511 30.7594C42.8344 31.063 43.7102 31.8619 44.0944 32.8961C44.2624 33.3494 44.0322 33.8525 43.5781 34.0214C43.4792 34.0573 43.376 34.0748 43.2745 34.0748Z" fill="#676968"/>
<path d="M32.3912 43.1555C30.8985 43.1555 29.5195 43.0198 28.3741 42.8807C27.8946 42.823 27.5534 42.3863 27.6111 41.9068C27.6697 41.4273 28.1029 41.0878 28.5859 41.1438C31.1566 41.4562 33.0326 41.4903 34.8561 41.2567C35.7477 41.1438 36.6376 40.9986 37.5292 40.8533C39.0062 40.6127 40.534 40.3633 42.0652 40.261C42.5701 40.2251 42.9647 40.5935 42.9971 41.0756C43.0295 41.5577 42.6646 41.9751 42.1825 42.0066C40.7335 42.1037 39.2477 42.3461 37.811 42.5806C36.8992 42.7293 35.9892 42.8772 35.0775 42.9936C34.1605 43.1091 33.2566 43.1555 32.3912 43.1555Z" fill="#676968"/>
<path d="M26.0405 47.2785C25.6572 47.2785 25.3046 47.0238 25.1978 46.6362C25.0692 46.1707 25.3422 45.6886 25.8077 45.56C29.5562 44.5231 33.1778 43.0373 36.572 41.1412L36.6927 41.0747C37.1145 40.8393 37.6482 40.9925 37.8818 41.416C38.1163 41.8386 37.9632 42.3715 37.5397 42.6051L37.4216 42.6707C33.9085 44.6333 30.1573 46.1733 26.2741 47.247C26.1971 47.2671 26.1183 47.2785 26.0405 47.2785Z" fill="#676968"/>
<path d="M23.4802 35.501C23.2055 35.501 22.9342 35.3715 22.7645 35.13C22.4862 34.7345 22.5807 34.1885 22.9762 33.9102L28.2463 30.2011C28.641 29.9237 29.187 30.0182 29.4652 30.4128C29.7435 30.8083 29.649 31.3543 29.2535 31.6326L23.9842 35.3417C23.8302 35.4485 23.6543 35.501 23.4802 35.501Z" fill="#676968"/>
<path d="M9.99743 32.89C9.5818 32.89 9.21343 32.5934 9.1373 32.1699C9.05155 31.6939 9.3683 31.2398 9.8443 31.1532L12.7248 30.6352C14.3138 30.3499 15.9728 30.4365 17.5224 30.8889C17.9862 31.0237 18.2531 31.5093 18.1183 31.9739C17.9836 32.4385 17.4979 32.7054 17.0333 32.5689C15.7418 32.1927 14.3576 32.1209 13.0354 32.358L10.1549 32.876C10.1007 32.8857 10.0491 32.89 9.99743 32.89Z" fill="#676968"/>
<path d="M19.3504 46.6958C19.2244 46.6958 19.0975 46.6687 18.9759 46.6109L9.62474 42.1738C9.18812 41.9664 9.00262 41.4449 9.20912 41.0083C9.41649 40.5717 9.93887 40.3862 10.3746 40.5927L19.7257 45.0298C20.1624 45.2372 20.3479 45.7587 20.1414 46.1953C19.9917 46.512 19.6776 46.6958 19.3504 46.6958Z" fill="#676968"/>
<path d="M6.5 33.1823C6.017 33.1823 5.625 32.7903 5.625 32.3073C5.625 32.0658 5.429 31.8698 5.1875 31.8698C4.7045 31.8698 4.3125 31.4778 4.3125 30.9948C4.3125 30.5118 4.7045 30.1198 5.1875 30.1198C6.39412 30.1198 7.375 31.1015 7.375 32.3073C7.375 32.7903 6.98388 33.1823 6.5 33.1823Z" fill="#676968"/>
<path d="M5.1875 31.8698H2.5625C2.0795 31.8698 1.6875 31.4778 1.6875 30.9948C1.6875 30.5118 2.0795 30.1198 2.5625 30.1198H5.1875C5.67138 30.1198 6.0625 30.5118 6.0625 30.9948C6.0625 31.4778 5.67138 31.8698 5.1875 31.8698Z" fill="#676968"/>
<path d="M1.25 33.1823C0.767 33.1823 0.375 32.7903 0.375 32.3073C0.375 31.1015 1.35675 30.1198 2.5625 30.1198C3.04638 30.1198 3.4375 30.5118 3.4375 30.9948C3.4375 31.4778 3.04638 31.8698 2.5625 31.8698C2.32187 31.8698 2.125 32.0658 2.125 32.3073C2.125 32.7903 1.73388 33.1823 1.25 33.1823Z" fill="#676968"/>
<path d="M1.25 41.4265C0.767 41.4265 0.375 41.0345 0.375 40.5515V32.3073C0.375 31.8243 0.767 31.4323 1.25 31.4323C1.73388 31.4323 2.125 31.8243 2.125 32.3073V40.5515C2.125 41.0345 1.73388 41.4265 1.25 41.4265Z" fill="#676968"/>
<path d="M2.5625 42.739C1.35675 42.739 0.375 41.7573 0.375 40.5515C0.375 40.0685 0.767 39.6765 1.25 39.6765C1.73388 39.6765 2.125 40.0685 2.125 40.5515C2.125 40.793 2.32187 40.989 2.5625 40.989C3.04638 40.989 3.4375 41.381 3.4375 41.864C3.4375 42.347 3.04638 42.739 2.5625 42.739Z" fill="#676968"/>
<path d="M5.1875 42.739H2.5625C2.0795 42.739 1.6875 42.347 1.6875 41.864C1.6875 41.381 2.0795 40.989 2.5625 40.989H5.1875C5.67138 40.989 6.0625 41.381 6.0625 41.864C6.0625 42.347 5.67138 42.739 5.1875 42.739Z" fill="#676968"/>
<path d="M6.5 41.4265C6.017 41.4265 5.625 41.0345 5.625 40.5515V32.3073C5.625 31.8243 6.017 31.4323 6.5 31.4323C6.98388 31.4323 7.375 31.8243 7.375 32.3073V40.5515C7.375 41.0345 6.98388 41.4265 6.5 41.4265Z" fill="#676968"/>
<path d="M5.1875 42.739C4.7045 42.739 4.3125 42.347 4.3125 41.864C4.3125 41.381 4.7045 40.989 5.1875 40.989C5.429 40.989 5.625 40.793 5.625 40.5515C5.625 40.0685 6.017 39.6765 6.5 39.6765C6.98388 39.6765 7.375 40.0685 7.375 40.5515C7.375 41.7573 6.39412 42.739 5.1875 42.739Z" fill="#676968"/>
<path d="M10 38.7595C9.517 38.7595 9.125 38.3675 9.125 37.8845V32.015C9.125 31.532 9.517 31.14 10 31.14C10.4839 31.14 10.875 31.532 10.875 32.015V37.8845C10.875 38.3675 10.4839 38.7595 10 38.7595Z" fill="#676968"/>
</svg>
