<svg width="24" height="24" viewBox="0 0 24 24" fill="none" xmlns="http://www.w3.org/2000/svg">
<mask id="mask0_52_546" style="mask-type:luminance" maskUnits="userSpaceOnUse" x="0" y="0" width="24" height="24">
<path d="M0 1.90735e-06H24V24H0V1.90735e-06Z" fill="white"/>
</mask>
<g mask="url(#mask0_52_546)">
<path d="M2.34375 13.4531C2.6025 13.4531 2.8125 13.6631 2.8125 13.9219C2.8125 14.1806 2.6025 14.3906 2.34375 14.3906C2.085 14.3906 1.875 14.1806 1.875 13.9219C1.875 13.6631 2.085 13.4531 2.34375 13.4531Z" fill="#1ECA8C"/>
<path d="M4.21875 19.5497C4.21734 20.0663 3.79828 20.4844 3.28125 20.4844H0.46875V12.0469H3.28125C3.79922 12.0469 4.21875 12.4665 4.21875 12.9844V19.5497Z" stroke="#1ECA8C" stroke-width="0.5" stroke-miterlimit="10" stroke-linecap="round" stroke-linejoin="round"/>
<path d="M15.9403 17.5008L21.7003 15.5208C22.3148 15.2991 23.0428 15.5086 23.3531 16.0828C23.7745 16.8624 23.4056 17.7221 22.6898 18.0084L13.9312 21.8649C13.215 22.1907 12.4373 22.3594 11.6508 22.3594C10.6523 22.3594 9.67266 22.088 8.81672 21.5742L6.36516 20.1033C5.79937 19.7639 4.87641 19.5736 4.21875 19.5497" stroke="#1ECA8C" stroke-width="0.5" stroke-miterlimit="10" stroke-linecap="round" stroke-linejoin="round"/>
<path d="M4.21875 12.9844H7.92984C8.41312 12.9844 8.88797 13.1086 9.30891 13.3458L11.7858 14.7389C11.9264 14.8181 12.0844 14.8594 12.2456 14.8594H15.2812C16.058 14.8594 16.6875 15.4889 16.6875 16.2656C16.6875 16.7906 16.4002 17.2481 15.9736 17.4895C15.7692 17.6058 15.533 17.6719 15.2812 17.6719H10.5159" stroke="#1ECA8C" stroke-width="0.5" stroke-miterlimit="10" stroke-linecap="round" stroke-linejoin="round"/>
<path d="M7.9668 3.89114C8.34644 2.59547 9.42606 1.63599 10.8613 1.63599C13.1732 1.63599 13.9035 4.27271 13.9035 4.27271C13.9035 4.27271 14.6338 1.63599 16.9461 1.63599C18.7471 1.63599 19.9883 3.14771 19.9883 4.93828C19.9883 7.30786 17.7542 8.89406 13.9597 12.1829C11.6739 10.2016 9.81972 8.81728 8.76756 7.43902" stroke="#1ECA8C" stroke-width="0.5" stroke-miterlimit="10" stroke-linecap="round" stroke-linejoin="round"/>
<path d="M7.92187 5.29688C8.18062 5.29688 8.39062 5.50688 8.39062 5.76563C8.39062 6.02438 8.18062 6.23438 7.92187 6.23438C7.66312 6.23438 7.45312 6.02438 7.45312 5.76563C7.45312 5.50688 7.66312 5.29688 7.92187 5.29688Z" fill="#1ECA8C"/>
</g>
</svg>
