<svg width="56" height="56" viewBox="0 0 56 56" fill="none" xmlns="http://www.w3.org/2000/svg">
<path d="M3.41964 25.1652C1.89496 25.7427 1.50296 28.0025 2.8155 29.0301C3.4306 29.5425 4.12895 29.9459 4.88025 30.2225C4.65296 30.4556 4.47465 30.7318 4.35584 31.0349C4.23702 31.3379 4.18012 31.6618 4.18849 31.9872C4.26442 34.5553 7.76969 35.1373 10.0971 35.2424C9.93877 35.7028 9.95237 36.2049 10.1355 36.656C10.3185 37.1072 10.6587 37.4768 11.0931 37.6965C15.9131 39.8532 20.2585 39.0463 25.6706 34.7137C25.5494 36.2801 25.5911 37.8548 25.7949 39.4126C25.8759 40.06 25.7414 40.7161 25.4122 41.2794C24.4671 42.8966 22.2004 45.9486 17.638 48.2201C17.271 48.3978 16.9726 48.6915 16.7892 49.0558C16.6057 49.42 16.5473 49.8345 16.623 50.2353C16.8585 51.671 18.2727 51.968 19.5279 51.796C19.2299 53.181 20.6329 54.5348 22.0205 54.1276C22.6835 53.957 23.3146 53.6804 23.8895 53.3085C24.075 53.7089 24.4095 54.021 24.8218 54.1783C25.234 54.3357 25.6914 54.3259 26.0965 54.151C28.5188 53.098 31.4702 50.1949 31.8816 42.3618C37.2043 39.5124 43.5776 34.0981 39.7147 25.168C38.8696 23.3398 39.4983 20.9639 41.1956 19.881C40.7595 21.9355 41.751 24.9025 41.9682 25.1285C42.3192 25.7967 43.332 25.271 42.9934 24.6014C42.8726 24.3644 40.1912 18.9295 45.7262 14.7899C46.5442 15.6204 47.6559 16.096 48.8215 16.1143C49.7493 16.0938 50.6554 15.8301 51.4494 15.3496C51.5209 15.3089 51.5829 15.2534 51.6312 15.1867C51.6795 15.1201 51.713 15.0438 51.7294 14.9632C51.8447 14.0947 49.7048 12.7925 48.3231 12.7891C48.9749 12.1805 49.566 11.51 50.0881 10.7871C51.7282 11.7058 53.7585 11.3453 54.8304 9.46118C54.9061 9.33752 54.9324 9.18988 54.9041 9.04769C54.8757 8.90551 54.7949 8.77921 54.6776 8.69398C54.5753 8.55267 52.8467 7.63987 51.5092 8.15902C51.5843 7.95863 51.6521 7.75741 51.7126 7.55537C53.5144 6.54457 54.6465 4.29634 53.1224 1.97926C53.0471 1.85748 52.9292 1.76809 52.7915 1.72851C52.6539 1.68893 52.5065 1.70199 52.378 1.76514C50.8719 2.50006 49.3172 4.67796 50.6113 7.21526C50.2957 8.23681 49.8156 9.20007 49.1899 10.0671C49.1881 9.36925 49.0107 8.68305 48.674 8.07171C48.3374 7.46037 47.8524 6.94353 47.2637 6.56878C47.1968 6.52923 47.1226 6.50353 47.0456 6.4932C46.9685 6.48287 46.8902 6.48813 46.8152 6.50865C46.7403 6.52917 46.6702 6.56455 46.6091 6.61268C46.5481 6.66081 46.4974 6.72071 46.4599 6.78883C45.0993 9.30521 46.2549 11.1962 47.3554 12.1148C46.662 12.7686 45.7983 13.3184 45.0166 13.8816C45.2966 11.2568 43.2231 9.76391 43.1968 9.7453C43.1328 9.70114 43.0606 9.67029 42.9845 9.65459C42.9083 9.63889 42.8298 9.63865 42.7536 9.65389C42.6774 9.66913 42.605 9.69954 42.5408 9.74331C42.4765 9.78709 42.4217 9.84333 42.3797 9.90869C40.6824 12.5822 41.8472 14.7542 42.9911 15.8256C42.4719 16.4731 42.0471 17.1909 41.7291 17.9575C41.1819 17.4578 40.7179 16.874 40.3544 16.2281C40.0105 15.6265 39.4888 15.146 38.861 14.8525C38.2332 14.559 37.5299 14.4669 36.8477 14.5888C34.9518 14.9182 34.0355 16.5475 33.633 18.6241C33.1359 20.549 31.962 22.2195 30.4558 23.5488C27.2481 18.7712 18.1358 23.9795 10.5694 19.723C10.5895 18.0177 11.5551 17.9175 11.6597 17.9121C11.7729 17.909 11.8828 17.8728 11.9757 17.808C12.0686 17.7432 12.1405 17.6527 12.1825 17.5475C12.2245 17.4423 12.2348 17.3271 12.2122 17.2162C12.1895 17.1052 12.1349 17.0033 12.055 16.923C10.9844 15.8783 10.449 14.6077 10.7538 13.8336C11.1195 12.903 12.2642 13.2702 12.391 13.314C12.4965 13.35 12.6101 13.355 12.7183 13.3282C12.8264 13.3014 12.9246 13.244 13.0011 13.1629C13.0775 13.0818 13.129 12.9804 13.1493 12.8708C13.1696 12.7612 13.158 12.6481 13.1157 12.545C12.5835 11.2573 12.0845 9.35528 13.454 9.13951C13.6066 9.1257 13.7592 9.16598 13.8851 9.25329C14.011 9.3406 14.1023 9.4694 14.1428 9.61716C16.631 17.6902 23.2894 18.4345 28.1812 19.9459C28.5892 20.076 28.9668 20.287 29.2914 20.5663C29.616 20.8457 29.8809 21.1876 30.0704 21.5717C30.4265 22.2338 31.4358 21.7169 31.0915 21.0372C30.8331 20.5224 30.475 20.0641 30.0379 19.6889C29.6007 19.3137 29.0934 19.0292 28.5454 18.8519C23.7493 17.3661 17.5092 16.7272 15.2523 9.30718C14.4123 6.80366 10.2958 7.88841 11.7067 12.0538C9.11221 12.1316 8.95475 15.1205 10.6394 17.0745C9.96522 17.4962 9.60073 18.1736 9.46863 19.0467C8.02693 18.0429 6.80821 16.7519 5.88891 15.2549C5.63852 14.8383 5.24773 14.5248 4.78681 14.3707C4.32589 14.2165 3.8251 14.2319 3.37451 14.4141C1.30564 15.2211 2.13428 17.6456 2.98416 19.1031C2.45125 19.1667 1.96095 19.4259 1.60837 19.8306C0.149902 21.4906 2.05621 24.047 3.41964 25.1652ZM53.4912 9.35116C52.8502 10.1961 51.6795 10.2869 50.8724 9.88464C51.8531 8.91667 52.8859 9.10196 53.4912 9.35116ZM46.7712 14.196C47.3295 13.9607 47.9413 13.8818 48.541 13.9676C49.1407 14.0535 49.7057 14.301 50.1755 14.6835C48.5339 15.3176 47.378 14.7025 46.7706 14.196H46.7712ZM51.4009 4.49481C51.5983 3.94263 51.9534 3.46049 52.4221 3.10815C53.0625 4.36535 52.4524 5.66537 51.4877 6.31991C51.2535 5.73868 51.2226 5.09529 51.4003 4.49431L51.4009 4.49481ZM47.184 7.98822C47.6883 8.51528 48.3204 9.52641 47.8967 11.0483C47.3403 10.5082 46.6599 9.48704 47.184 7.98822ZM43.0169 11.1413C43.5637 11.7636 44.2909 13.0108 43.6089 14.8072C43.0116 14.1665 42.2192 12.895 43.0174 11.1405L43.0169 11.1413ZM2.47407 20.592C2.8944 20.0299 3.76371 20.3436 4.12985 20.3501C4.24109 20.3543 4.35121 20.3265 4.44708 20.2699C4.54294 20.2133 4.6205 20.1304 4.67049 20.0309C4.72048 19.9314 4.7408 19.8197 4.72902 19.709C4.71723 19.5983 4.67385 19.4933 4.60404 19.4066C3.89365 18.5699 3.41769 17.5598 3.22463 16.4793C3.06865 15.4687 4.35418 15.0164 4.91204 15.8674C9.78322 23.6765 18.0325 22.8435 25.7025 22.5064C30.0758 22.6508 30.1209 25.8705 30.1206 26.0159C30.1176 26.7662 31.2539 26.7886 31.2735 26.0296C31.2559 25.5561 31.1649 25.0882 31.0038 24.6426C32.9384 22.9234 34.4105 20.7702 34.9249 18.2629C35.2733 15.751 37.9939 14.7018 39.3591 16.8095C39.7636 17.521 40.2712 18.1686 40.8655 18.7313C38.4957 20.016 37.5281 23.1949 38.6609 25.636C39.5335 27.6368 39.8653 29.8318 39.6231 32.0012C39.0806 37.477 31.1469 41.4453 31.0668 41.4848C30.974 41.5305 30.8951 41.6003 30.8385 41.687C30.782 41.7737 30.7498 41.874 30.7453 41.9774C30.4271 49.4682 27.7917 52.1571 25.6367 53.0937C25.541 53.1354 25.4353 53.1479 25.3326 53.1299C25.2298 53.1118 25.1347 53.064 25.059 52.9923C24.9833 52.9205 24.9304 52.8281 24.9068 52.7265C24.8832 52.6249 24.89 52.5187 24.9264 52.4209C25.1463 51.8818 24.4364 51.3932 24.01 51.783C23.3588 52.3636 22.5807 52.7838 21.7381 53.0099C21.5528 53.0604 21.356 53.0478 21.1786 52.9741C21.0013 52.9005 20.8534 52.77 20.7583 52.6032C20.6633 52.4363 20.6263 52.2426 20.6534 52.0525C20.6804 51.8624 20.7699 51.6866 20.9078 51.5529C21.0201 51.4411 21.0779 51.3773 21.0779 51.3773C21.4724 50.9699 21.0285 50.2634 20.4926 50.4349C19.6512 50.6347 17.9419 51.0581 17.7593 50.0396C17.728 49.8833 17.7496 49.721 17.8208 49.5784C17.892 49.4358 18.0087 49.3209 18.1524 49.252C22.9824 46.8473 25.3978 43.5891 26.4078 41.861C26.8652 41.0776 27.0517 40.1654 26.9385 39.2654C26.6909 37.3779 26.6938 35.4659 26.9472 33.5792C27.6807 32.8875 28.4296 32.1152 29.1913 31.249C29.2422 31.1923 29.2814 31.1261 29.3066 31.0542C29.3317 30.9823 29.3424 30.9061 29.3379 30.83C29.3335 30.754 29.314 30.6795 29.2806 30.6111C29.2472 30.5426 29.2005 30.4814 29.1434 30.4311C29.0862 30.3807 29.0196 30.3422 28.9474 30.3178C28.8752 30.2933 28.799 30.2834 28.723 30.2887C28.6469 30.2939 28.5727 30.3141 28.5046 30.3482C28.4365 30.3823 28.3757 30.4295 28.326 30.4872C20.6013 39.2637 14.5361 38.1248 11.6083 36.6647C11.4697 36.5967 11.3526 36.4917 11.27 36.3612C11.1874 36.2308 11.1425 36.08 11.1404 35.9256C11.1349 35.7689 11.1727 35.6138 11.2497 35.4772C11.3266 35.3406 11.4398 35.2279 11.5767 35.1515C11.6891 35.0872 11.7767 34.9871 11.8254 34.8672C11.8742 34.7473 11.8813 34.6144 11.8456 34.49C11.8099 34.3655 11.7335 34.2566 11.6286 34.1807C11.5237 34.1049 11.3964 34.0663 11.2671 34.0714C9.11616 34.1867 7.34706 33.8551 6.01063 33.0876C5.16388 32.6373 5.11265 31.3183 5.94936 30.8311C6.50393 30.4271 6.71887 30.3734 6.65249 29.8521C6.6259 29.7534 6.57355 29.6635 6.50078 29.5917C6.42802 29.5199 6.33747 29.4687 6.23842 29.4435C5.13835 29.1625 4.23873 28.7283 3.56458 28.153C3.39211 28.0051 3.2676 27.8092 3.20692 27.5902C3.14625 27.3713 3.15215 27.1392 3.2239 26.9236C3.29564 26.7081 3.42996 26.5187 3.60973 26.3798C3.78951 26.2409 4.00659 26.1586 4.23329 26.1436C4.51256 26.1253 4.79022 26.0876 5.06423 26.0306C5.17765 26.0026 5.27996 25.941 5.35776 25.8538C5.43557 25.7667 5.48524 25.658 5.50026 25.5422C5.51529 25.4263 5.49497 25.3086 5.44197 25.2045C5.38897 25.1004 5.30576 25.0147 5.20324 24.9587C3.73324 24.1846 2.74666 23.0389 2.27049 21.5522C2.21645 21.3885 2.20682 21.2133 2.24259 21.0446C2.27835 20.8759 2.35823 20.7197 2.47407 20.592Z" fill="#1ECA8C"/>
<path d="M37.6371 18.6516C38.4308 18.6381 38.4307 17.4572 37.6371 17.4438C36.8432 17.4574 36.8434 18.6381 37.6371 18.6516Z" fill="#1ECA8C"/>
</svg>
