<svg width="56" height="56" viewBox="0 0 56 56" fill="none" xmlns="http://www.w3.org/2000/svg">
<path d="M48.7486 9.58471L48.3497 9.18572C45.6137 6.44986 41.9651 4.96005 38.0766 5.00082C34.521 5.03498 31.1545 6.3353 28.4994 8.68194C25.8451 6.34439 22.4526 5.06733 18.8477 5.06733C14.9276 5.06733 11.2588 6.57724 8.51719 9.31894L8.25152 9.58452C5.50981 12.3263 4 15.9716 4 19.849C4 23.7265 5.50991 27.3716 8.25142 30.1127L11.2057 33.067L10.6602 33.6687C9.29286 35.1769 9.34933 37.486 10.7888 38.9256C11.5354 39.6721 12.5629 40.0746 13.6174 40.039C13.5233 41.1245 13.9045 42.2383 14.7536 43.0614C15.4615 43.7476 16.387 44.122 17.369 44.122C17.5888 44.122 17.8085 44.1033 18.025 44.0657C18.0687 44.9527 18.428 45.8259 19.1009 46.5042C19.807 47.2158 20.7418 47.605 21.7409 47.605C22.0785 47.605 22.4161 47.5603 22.7416 47.4706C22.8441 48.2302 23.1805 48.9644 23.7516 49.5656C24.4623 50.3139 25.422 50.7341 26.454 50.7484C27.4733 50.764 28.4661 50.3607 29.1882 49.6417L40.6863 38.1751C41.0607 37.8007 41.0607 37.1935 40.6862 36.8191C40.3117 36.4445 39.7045 36.4447 39.3301 36.8192L27.8352 48.2825C27.268 48.8474 26.3737 48.9918 25.6586 48.6301C24.9879 48.291 24.5729 47.5625 24.6373 46.8125C24.6727 46.3998 24.8486 46.0076 25.1255 45.7005L32.1418 38.0263C32.4991 37.6355 32.472 37.0289 32.0811 36.6716C31.6903 36.314 31.0837 36.3414 30.7263 36.7321L23.0758 45.0999C22.7392 45.468 22.2793 45.6765 21.7806 45.6866C21.2787 45.6965 20.8138 45.5073 20.4625 45.1533C19.7836 44.4691 19.7612 43.3758 20.4114 42.6643L28.3776 34.0617C28.7385 33.6741 28.717 33.0673 28.3294 32.7064C27.9418 32.3455 27.3349 32.3672 26.9741 32.7547L18.7214 41.6168C18.381 41.9824 17.9185 42.1908 17.4192 42.2036C16.9189 42.2152 16.4472 42.0319 16.0885 41.6841C15.3665 40.9842 15.3333 39.8553 16.0127 39.114L24.4059 29.9576C24.7638 29.5672 24.7374 28.9607 24.3471 28.6027C23.9566 28.2448 23.35 28.2713 22.9922 28.6617L14.8813 37.5101C14.1624 38.2939 12.8979 38.3218 12.1452 37.5693C11.4298 36.8537 11.4017 35.7061 12.0813 34.9566L27.014 18.4854L30.3461 21.2646C32.0087 22.6511 34.4937 22.5219 36.0033 20.9701C36.8042 20.147 37.2328 19.0169 37.1793 17.8696C37.1258 16.7224 36.5939 15.637 35.7199 14.8918L29.9445 9.968C32.2259 8.02321 35.1447 6.94684 38.1572 6.91794C38.1158 6.91794 38.1987 6.91756 38.1572 6.91794C41.48 6.91794 44.6541 8.2018 46.9937 10.5414L47.3926 10.9403C49.7719 13.3197 51.0823 16.4834 51.0823 19.8486C51.0823 23.2138 49.7719 26.3772 47.3926 28.7561L45.3595 30.7893C44.9851 31.1637 44.9851 31.7709 45.3596 32.1454C45.7341 32.5198 46.3413 32.5198 46.7158 32.1454L48.7487 30.1123C51.4901 27.3716 53 23.7266 53 19.849C53 15.9716 51.4902 12.3263 48.7486 9.58471ZM35.2634 17.9593C35.2927 18.5879 35.0672 19.1823 34.6285 19.6332C33.8134 20.471 32.472 20.5407 31.5744 19.7921L27.5357 16.4236C27.1408 16.0943 26.5565 16.1349 26.2111 16.5159L12.4954 31.6445L9.60744 28.7566C7.22816 26.3776 5.91779 23.2142 5.91779 19.8491C5.91779 16.4839 7.22816 13.3202 9.60744 10.9408L9.87311 10.6752C12.2525 8.29578 15.4397 6.98531 18.8475 6.98531C22.2553 6.98531 25.4425 8.29578 27.8218 10.6752C27.8327 10.6861 34.4754 16.3517 34.4754 16.3517C34.9543 16.7599 35.2341 17.3308 35.2634 17.9593Z" fill="#676968"/>
<path d="M42.3136 33.8202C41.952 34.2058 41.9716 34.8114 42.3571 35.173C42.7425 35.5346 43.3483 35.515 43.7098 35.1295C44.0714 34.7439 44.0519 34.1383 43.6664 33.7767C43.2808 33.4152 42.6751 33.4347 42.3136 33.8202Z" fill="#676968"/>
</svg>
