<svg width="56" height="56" viewBox="0 0 56 56" fill="none" xmlns="http://www.w3.org/2000/svg">
<path d="M27.9999 54.4865C27.7992 54.4865 27.6067 54.4067 27.4648 54.2648C27.3229 54.1229 27.2432 53.9304 27.2432 53.7297V29.4151C27.2432 29.2596 27.2912 29.1079 27.3806 28.9806C27.47 28.8533 27.5964 28.7566 27.7426 28.7038L47.7059 21.4919C47.8946 21.4236 48.1028 21.4332 48.2845 21.5184C48.4662 21.6036 48.6067 21.7575 48.6749 21.9463C48.7431 22.1351 48.7336 22.3432 48.6484 22.5249C48.5632 22.7066 48.4092 22.8471 48.2205 22.9153L28.7567 29.9463V52.6929L47.2064 46.7971V32.1394C47.2064 31.9387 47.2861 31.7462 47.4281 31.6043C47.57 31.4624 47.7625 31.3827 47.9632 31.3827C48.1639 31.3827 48.3564 31.4624 48.4983 31.6043C48.6402 31.7462 48.7199 31.9387 48.7199 32.1394V47.3502C48.7199 47.5105 48.6689 47.6667 48.5744 47.7962C48.4798 47.9257 48.3467 48.0218 48.194 48.0707L28.2307 54.4509C28.156 54.4743 28.0782 54.4863 27.9999 54.4865Z" fill="#676968"/>
<path d="M32.943 38.3146C32.8131 38.3145 32.6854 38.281 32.5722 38.2172C32.4591 38.1535 32.3642 38.0616 32.2968 37.9506L27.3536 29.8079C27.2954 29.7121 27.2591 29.6046 27.2475 29.4932C27.2359 29.3817 27.2491 29.269 27.2864 29.1633C27.3236 29.0576 27.3838 28.9615 27.4627 28.8819C27.5416 28.8023 27.6372 28.7412 27.7426 28.703L47.7081 21.4987C47.8724 21.4394 48.0521 21.4387 48.2167 21.4968C48.3814 21.5549 48.521 21.6681 48.6117 21.8173L53.5556 29.9608C53.6138 30.0566 53.65 30.1641 53.6616 30.2756C53.6732 30.3871 53.6599 30.4998 53.6226 30.6056C53.5853 30.7113 53.5249 30.8074 53.446 30.887C53.367 30.9665 53.2713 31.0276 53.1658 31.0656L33.2003 38.2699C33.1178 38.2995 33.0307 38.3146 32.943 38.3146ZM29.1267 29.8162L33.2692 36.6391L51.7817 29.9585L47.6393 23.1348L29.1267 29.8162Z" fill="#676968"/>
<path d="M23.0569 38.3146C22.9692 38.3146 22.8821 38.2995 22.7996 38.2699L2.83404 31.0656C2.72859 31.0276 2.63291 30.9665 2.55393 30.887C2.47494 30.8074 2.41462 30.7113 2.37733 30.6056C2.34003 30.4998 2.32669 30.3871 2.33828 30.2756C2.34987 30.1641 2.38608 30.0566 2.44432 29.9608L7.38821 21.8173C7.47894 21.6681 7.61847 21.5549 7.78315 21.4968C7.94783 21.4387 8.12753 21.4394 8.29177 21.4987L28.2573 28.703C28.3627 28.7412 28.4583 28.8023 28.5372 28.8819C28.6161 28.9615 28.6763 29.0576 28.7135 29.1633C28.7508 29.269 28.764 29.3817 28.7524 29.4932C28.7408 29.6046 28.7045 29.7121 28.6463 29.8079L23.7031 37.9506C23.6357 38.0616 23.5408 38.1535 23.4276 38.2172C23.3145 38.281 23.1868 38.3145 23.0569 38.3146ZM4.21815 29.9555L22.7307 36.6361L26.8732 29.8162L8.36064 23.1318L4.21815 29.9555Z" fill="#676968"/>
<path d="M28.0001 54.4865C27.9231 54.4859 27.8465 54.4739 27.7731 54.4509L7.80981 48.0707C7.65643 48.0225 7.5224 47.9266 7.42716 47.7971C7.33191 47.6676 7.28039 47.511 7.28008 47.3503V32.1395C7.28008 31.9387 7.35981 31.7463 7.50173 31.6043C7.64365 31.4624 7.83613 31.3827 8.03684 31.3827C8.23754 31.3827 8.43003 31.4624 8.57195 31.6043C8.71387 31.7463 8.7936 31.9387 8.7936 32.1395V46.7971L27.2433 52.693V29.9464L7.77954 22.9146C7.68608 22.8808 7.60018 22.8289 7.52676 22.7619C7.45334 22.695 7.39383 22.6142 7.35163 22.5242C7.30944 22.4342 7.28537 22.3368 7.28082 22.2375C7.27627 22.1382 7.29132 22.039 7.32511 21.9456C7.3589 21.8521 7.41077 21.7662 7.47775 21.6928C7.54473 21.6194 7.62552 21.5598 7.71551 21.5176C7.89723 21.4324 8.10537 21.4229 8.29414 21.4911L28.2574 28.7038C28.4036 28.7567 28.5301 28.8533 28.6194 28.9806C28.7088 29.1079 28.7568 29.2596 28.7568 29.4151V53.7297C28.7568 53.9304 28.6771 54.1229 28.5352 54.2648C28.3933 54.4067 28.2008 54.4865 28.0001 54.4865Z" fill="#676968"/>
<path d="M8.03675 22.9638C7.85854 22.9639 7.68602 22.9011 7.54957 22.7865C7.41311 22.6719 7.32149 22.5128 7.29083 22.3372C7.26017 22.1617 7.29244 21.981 7.38197 21.8269C7.47149 21.6728 7.61252 21.5552 7.78021 21.4949L20.8479 16.7819C21.0367 16.7138 21.2449 16.7236 21.4266 16.809C21.6082 16.8945 21.7485 17.0486 21.8165 17.2374C21.8846 17.4263 21.8748 17.6344 21.7894 17.8161C21.7039 17.9978 21.5498 18.138 21.361 18.2061L8.29329 22.9192C8.211 22.9488 8.1242 22.9639 8.03675 22.9638Z" fill="#676968"/>
<path d="M47.9633 22.9638C47.8758 22.9639 47.789 22.9488 47.7067 22.9192L34.639 18.2061C34.4502 18.138 34.2961 17.9978 34.2106 17.8161C34.1252 17.6344 34.1154 17.4263 34.1835 17.2374C34.2515 17.0486 34.3918 16.8945 34.5734 16.809C34.7551 16.7236 34.9633 16.7138 35.1521 16.7819L48.2198 21.4919C48.3875 21.5522 48.5285 21.6698 48.618 21.8239C48.7076 21.9779 48.7398 22.1587 48.7092 22.3342C48.6785 22.5098 48.5869 22.6689 48.4504 22.7835C48.314 22.8981 48.1415 22.9609 47.9633 22.9608V22.9638Z" fill="#676968"/>
<path d="M28.0001 24.8254C27.8345 24.8266 27.6732 24.7734 27.5407 24.6741C27.0685 24.3139 15.9873 15.7686 15.9873 8.61268C15.9859 7.22064 16.3942 5.85897 17.1613 4.69735C17.9284 3.53574 19.0204 2.62555 20.3012 2.08021C21.5819 1.53486 22.9949 1.37849 24.3639 1.63056C25.7329 1.88263 26.9975 2.532 28.0001 3.49776C29.0022 2.53242 30.2661 1.88328 31.6345 1.6312C33.0029 1.37913 34.4153 1.53527 35.6956 2.08018C36.9759 2.62508 38.0675 3.53466 38.8345 4.69559C39.6015 5.85651 40.01 7.21747 40.009 8.6089C40.009 15.7648 28.9316 24.3101 28.4602 24.6703C28.328 24.7711 28.1663 24.8257 28.0001 24.8254ZM23.0811 3.02706C21.6018 3.02926 20.1837 3.61817 19.138 4.6646C18.0922 5.71103 17.5043 7.12952 17.5031 8.6089C17.5031 14.2551 25.922 21.4162 28.0001 23.1023C30.0811 21.4162 38.497 14.2551 38.497 8.6089C38.4985 7.45602 38.1425 6.33104 37.4781 5.38888C36.8136 4.44671 35.8735 3.73371 34.787 3.34804C33.7005 2.96237 32.5212 2.92301 31.4115 3.23538C30.3017 3.54775 29.3161 4.19648 28.5903 5.09225C28.5192 5.18018 28.4292 5.25105 28.3271 5.29964C28.2249 5.34823 28.1132 5.3733 28.0001 5.373C27.8876 5.37303 27.7765 5.34798 27.6749 5.29967C27.5733 5.25137 27.4838 5.18102 27.4128 5.09376C26.8908 4.4479 26.2308 3.92707 25.4812 3.56946C24.7317 3.21184 23.9116 3.02651 23.0811 3.02706Z" fill="#676968"/>
</svg>
