<svg width="48" height="48" viewBox="0 0 48 48" fill="none" xmlns="http://www.w3.org/2000/svg">
<path d="M24.4346 23.1878C27.2501 21.5062 29.1739 18.3751 29.1739 14.7543C29.1739 9.37578 24.9805 5 19.8261 5C14.6717 5 10.4782 9.37578 10.4782 14.7543C10.4782 18.3751 12.402 21.5062 15.2176 23.1878C8.17498 25.1172 3 31.3307 3 38.6951V41.0907C3 41.6292 3.41881 42.0662 3.93481 42.0662C4.45081 42.0662 4.86962 41.6292 4.86962 41.0907V38.6951C4.86953 30.8742 11.5795 24.5086 19.8261 24.5086C28.0727 24.5086 34.7826 30.8742 34.7826 38.6951V41.0907C34.7826 41.6292 35.2014 42.0662 35.7174 42.0662C36.2334 42.0662 36.6522 41.6292 36.6522 41.0907V38.6951C36.6521 31.3307 31.4772 25.1153 24.4346 23.1878ZM12.3478 14.7543C12.3478 10.4507 15.7018 6.95091 19.8261 6.95091C23.9503 6.95091 27.3043 10.4507 27.3043 14.7543C27.3043 19.0578 23.9503 22.5576 19.8261 22.5576C15.7018 22.5576 12.3478 19.0579 12.3478 14.7543Z" fill="#118CE3"/>
<path d="M37.0221 23.2128C39.0487 21.814 40.3911 19.4222 40.3911 16.7047C40.3911 12.4012 37.0371 8.90137 32.9129 8.90137C32.3969 8.90137 31.9781 9.33839 31.9781 9.87682C31.9781 10.4153 32.3969 10.8523 32.9129 10.8523C36.0051 10.8523 38.5216 13.4782 38.5216 16.7048C38.5216 19.9315 36.0051 22.5574 32.9129 22.5574C32.3969 22.5574 31.9781 22.9944 31.9781 23.5328C31.9781 24.0713 32.3968 24.5081 32.9128 24.5081C39.0992 24.5081 44.1302 29.3599 44.1302 35.3255V37.1886C44.1302 37.727 44.549 38.164 45.065 38.164C45.581 38.164 45.9998 37.727 45.9998 37.1886V35.3255C45.9998 29.6876 42.2308 24.8983 37.0221 23.2128Z" fill="#118CE3"/>
</svg>
